<?xml version="1.0" encoding="UTF-8"?>
<svg xmlns="http://www.w3.org/2000/svg" xmlns:xlink="http://www.w3.org/1999/xlink" width="1138.5" height="778.5" viewBox="-51.75 -726.75 1138.5 778.5">
<defs>
<style type="text/css">
.l235d4 {stroke: #0067A5; fill: #0067A5; fill-opacity: 0.5;}
.l71d20 {stroke: #B3446C; fill: #B3446C; fill-opacity: 0.5;}
</style>
</defs>
<rect x="-51.75" y="-726.75" width="1138.5" height="778.5" fill="#222222" stroke="none"/>
<g id="my_logo" transform="scale(1 -1)">
<polygon id="0x1468e30" class="l71d20" points="15.75,5 15.75,13.5 24.25,13.5 24.25,5 35,5 35,15.75 26.5,15.75 26.5,24.25 35,24.25 35,35 24.25,35 24.25,26.5 15.75,26.5 15.75,35 5,35 5,24.25 13.5,24.25 13.5,15.75 5,15.75 5,5"/>
<polygon id="0x1469a20" class="l71d20" points="15.75,125 15.75,133.5 24.25,133.5 24.25,125 35,125 35,135.75 26.5,135.75 26.5,144.25 35,144.25 35,155 24.25,155 24.25,146.5 15.75,146.5 15.75,155 5,155 5,144.25 13.5,144.25 13.5,135.75 5,135.75 5,125"/>
<polygon id="0x1469b10" class="l71d20" points="15.75,165 15.75,173.5 24.25,173.5 24.25,165 35,165 35,175.75 26.5,175.75 26.5,184.25 35,184.25 35,195 24.25,195 24.25,186.5 15.75,186.5 15.75,195 5,195 5,184.25 13.5,184.25 13.5,175.75 5,175.75 5,165"/>
<polygon id="0x1469b80" class="l71d20" points="15.75,285 15.75,293.5 24.25,293.5 24.25,285 35,285 35,295.75 26.5,295.75 26.5,304.25 35,304.25 35,315 24.25,315 24.25,306.5 15.75,306.5 15.75,315 5,315 5,304.25 13.5,304.25 13.5,295.75 5,295.75 5,285"/>
<polygon id="0x1469bf0" class="l71d20" points="55.75,45 55.75,53.5 64.25,53.5 64.25,45 75,45 75,55.75 66.5,55.75 66.5,64.25 75,64.25 75,75 64.25,75 64.25,66.5 55.75,66.5 55.75,75 45,75 45,64.25 53.5,64.25 53.5,55.75 45,55.75 45,45"/>
<polygon id="0x1469c60" class="l71d20" points="55.75,85 55.75,93.5 64.25,93.5 64.25,85 75,85 75,95.75 66.5,95.75 66.5,104.25 75,104.25 75,115 64.25,115 64.25,106.5 55.75,106.5 55.75,115 45,115 45,104.25 53.5,104.25 53.5,95.75 45,95.75 45,85"/>
<polygon id="0x1469d20" class="l71d20" points="55.75,125 55.75,133.5 64.25,133.5 64.25,125 75,125 75,135.75 66.5,135.75 66.5,144.25 75,144.25 75,155 64.25,155 64.25,146.5 55.75,146.5 55.75,155 45,155 45,144.25 53.5,144.25 53.5,135.75 45,135.75 45,125"/>
<polygon id="0x1469d90" class="l71d20" points="55.75,165 55.75,173.5 64.25,173.5 64.25,165 75,165 75,175.75 66.5,175.75 66.5,184.25 75,184.25 75,195 64.25,195 64.25,186.5 55.75,186.5 55.75,195 45,195 45,184.25 53.5,184.25 53.5,175.75 45,175.75 45,165"/>
<polygon id="0x1469e00" class="l71d20" points="55.75,205 55.75,213.5 64.25,213.5 64.25,205 75,205 75,215.75 66.5,215.75 66.5,224.25 75,224.25 75,235 64.25,235 64.25,226.5 55.75,226.5 55.75,235 45,235 45,224.25 53.5,224.25 53.5,215.75 45,215.75 45,205"/>
<polygon id="0x146a050" class="l71d20" points="55.75,245 55.75,253.5 64.25,253.5 64.25,245 75,245 75,255.75 66.5,255.75 66.5,264.25 75,264.25 75,275 64.25,275 64.25,266.5 55.75,266.5 55.75,275 45,275 45,264.25 53.5,264.25 53.5,255.75 45,255.75 45,245"/>
<polygon id="0x146a210" class="l71d20" points="135.75,45 135.75,53.5 144.25,53.5 144.25,45 155,45 155,55.75 146.5,55.75 146.5,64.25 155,64.25 155,75 144.25,75 144.25,66.5 135.75,66.5 135.75,75 125,75 125,64.25 133.5,64.25 133.5,55.75 125,55.75 125,45"/>
<polygon id="0x146a3d0" class="l71d20" points="135.75,85 135.75,93.5 144.25,93.5 144.25,85 155,85 155,95.75 146.5,95.75 146.5,104.25 155,104.25 155,115 144.25,115 144.25,106.5 135.75,106.5 135.75,115 125,115 125,104.25 133.5,104.25 133.5,95.75 125,95.75 125,85"/>
<polygon id="0x146a590" class="l71d20" points="135.75,125 135.75,133.5 144.25,133.5 144.25,125 155,125 155,135.75 146.5,135.75 146.5,144.25 155,144.25 155,155 144.25,155 144.25,146.5 135.75,146.5 135.75,155 125,155 125,144.25 133.5,144.25 133.5,135.75 125,135.75 125,125"/>
<polygon id="0x146a750" class="l71d20" points="135.75,165 135.75,173.5 144.25,173.5 144.25,165 155,165 155,175.75 146.5,175.75 146.5,184.25 155,184.25 155,195 144.25,195 144.25,186.5 135.75,186.5 135.75,195 125,195 125,184.25 133.5,184.25 133.5,175.75 125,175.75 125,165"/>
<polygon id="0x146a910" class="l71d20" points="135.75,205 135.75,213.5 144.25,213.5 144.25,205 155,205 155,215.75 146.5,215.75 146.5,224.25 155,224.25 155,235 144.25,235 144.25,226.5 135.75,226.5 135.75,235 125,235 125,224.25 133.5,224.25 133.5,215.75 125,215.75 125,205"/>
<polygon id="0x146aad0" class="l71d20" points="135.75,245 135.75,253.5 144.25,253.5 144.25,245 155,245 155,255.75 146.5,255.75 146.5,264.25 155,264.25 155,275 144.25,275 144.25,266.5 135.75,266.5 135.75,275 125,275 125,264.25 133.5,264.25 133.5,255.75 125,255.75 125,245"/>
<polygon id="0x146ac90" class="l71d20" points="175.75,45 175.75,53.5 184.25,53.5 184.25,45 195,45 195,55.75 186.5,55.75 186.5,64.25 195,64.25 195,75 184.25,75 184.25,66.5 175.75,66.5 175.75,75 165,75 165,64.25 173.5,64.25 173.5,55.75 165,55.75 165,45"/>
<polygon id="0x146ae50" class="l71d20" points="175.75,85 175.75,93.5 184.25,93.5 184.25,85 195,85 195,95.75 186.5,95.75 186.5,104.25 195,104.25 195,115 184.25,115 184.25,106.5 175.75,106.5 175.75,115 165,115 165,104.25 173.5,104.25 173.5,95.75 165,95.75 165,85"/>
<polygon id="0x146b010" class="l71d20" points="175.75,125 175.75,133.5 184.25,133.5 184.25,125 195,125 195,135.75 186.5,135.75 186.5,144.25 195,144.25 195,155 184.25,155 184.25,146.5 175.75,146.5 175.75,155 165,155 165,144.25 173.5,144.25 173.5,135.75 165,135.75 165,125"/>
<polygon id="0x146b1d0" class="l71d20" points="175.75,165 175.75,173.5 184.25,173.5 184.25,165 195,165 195,175.75 186.5,175.75 186.5,184.25 195,184.25 195,195 184.25,195 184.25,186.5 175.75,186.5 175.75,195 165,195 165,184.25 173.5,184.25 173.5,175.75 165,175.75 165,165"/>
<polygon id="0x146b390" class="l71d20" points="175.75,205 175.75,213.5 184.25,213.5 184.25,205 195,205 195,215.75 186.5,215.75 186.5,224.25 195,224.25 195,235 184.25,235 184.25,226.5 175.75,226.5 175.75,235 165,235 165,224.25 173.5,224.25 173.5,215.75 165,215.75 165,205"/>
<polygon id="0x146b550" class="l71d20" points="175.75,245 175.75,253.5 184.25,253.5 184.25,245 195,245 195,255.75 186.5,255.75 186.5,264.25 195,264.25 195,275 184.25,275 184.25,266.5 175.75,266.5 175.75,275 165,275 165,264.25 173.5,264.25 173.5,255.75 165,255.75 165,245"/>
<polygon id="0x146b710" class="l71d20" points="255.75,45 255.75,53.5 264.25,53.5 264.25,45 275,45 275,55.75 266.5,55.75 266.5,64.25 275,64.25 275,75 264.25,75 264.25,66.5 255.75,66.5 255.75,75 245,75 245,64.25 253.5,64.25 253.5,55.75 245,55.75 245,45"/>
<polygon id="0x146b8d0" class="l71d20" points="255.75,85 255.75,93.5 264.25,93.5 264.25,85 275,85 275,95.75 266.5,95.75 266.5,104.25 275,104.25 275,115 264.25,115 264.25,106.5 255.75,106.5 255.75,115 245,115 245,104.25 253.5,104.25 253.5,95.75 245,95.75 245,85"/>
<polygon id="0x146ba90" class="l71d20" points="255.75,125 255.75,133.5 264.25,133.5 264.25,125 275,125 275,135.75 266.5,135.75 266.5,144.25 275,144.25 275,155 264.25,155 264.25,146.5 255.75,146.5 255.75,155 245,155 245,144.25 253.5,144.25 253.5,135.75 245,135.75 245,125"/>
<polygon id="0x146bc50" class="l71d20" points="255.75,165 255.75,173.5 264.25,173.5 264.25,165 275,165 275,175.75 266.5,175.75 266.5,184.25 275,184.25 275,195 264.25,195 264.25,186.5 255.75,186.5 255.75,195 245,195 245,184.25 253.5,184.25 253.5,175.75 245,175.75 245,165"/>
<polygon id="0x146be10" class="l71d20" points="255.75,205 255.75,213.5 264.25,213.5 264.25,205 275,205 275,215.75 266.5,215.75 266.5,224.25 275,224.25 275,235 264.25,235 264.25,226.5 255.75,226.5 255.75,235 245,235 245,224.25 253.5,224.25 253.5,215.75 245,215.75 245,205"/>
<polygon id="0x146bfd0" class="l71d20" points="255.75,245 255.75,253.5 264.25,253.5 264.25,245 275,245 275,255.75 266.5,255.75 266.5,264.25 275,264.25 275,275 264.25,275 264.25,266.5 255.75,266.5 255.75,275 245,275 245,264.25 253.5,264.25 253.5,255.75 245,255.75 245,245"/>
<polygon id="0x146c190" class="l71d20" points="295.75,5 295.75,13.5 304.25,13.5 304.25,5 315,5 315,15.75 306.5,15.75 306.5,24.25 315,24.25 315,35 304.25,35 304.25,26.5 295.75,26.5 295.75,35 285,35 285,24.25 293.5,24.25 293.5,15.75 285,15.75 285,5"/>
<polygon id="0x146c350" class="l71d20" points="295.75,125 295.75,133.5 304.25,133.5 304.25,125 315,125 315,135.75 306.5,135.75 306.5,144.25 315,144.25 315,155 304.25,155 304.25,146.5 295.75,146.5 295.75,155 285,155 285,144.25 293.5,144.25 293.5,135.75 285,135.75 285,125"/>
<polygon id="0x146c510" class="l71d20" points="295.75,165 295.75,173.5 304.25,173.5 304.25,165 315,165 315,175.75 306.5,175.75 306.5,184.25 315,184.25 315,195 304.25,195 304.25,186.5 295.75,186.5 295.75,195 285,195 285,184.25 293.5,184.25 293.5,175.75 285,175.75 285,165"/>
<polygon id="0x146c6d0" class="l71d20" points="295.75,285 295.75,293.5 304.25,293.5 304.25,285 315,285 315,295.75 306.5,295.75 306.5,304.25 315,304.25 315,315 304.25,315 304.25,306.5 295.75,306.5 295.75,315 285,315 285,304.25 293.5,304.25 293.5,295.75 285,295.75 285,285"/>
<polygon id="0x146c890" class="l71d20" points="15.75,445 15.75,453.5 24.25,453.5 24.25,445 35,445 35,455.75 26.5,455.75 26.5,464.25 35,464.25 35,475 24.25,475 24.25,466.5 15.75,466.5 15.75,475 5,475 5,464.25 13.5,464.25 13.5,455.75 5,455.75 5,445"/>
<polygon id="0x146cc60" class="l71d20" points="15.75,565 15.75,573.5 24.25,573.5 24.25,565 35,565 35,575.75 26.5,575.75 26.5,584.25 35,584.25 35,595 24.25,595 24.25,586.5 15.75,586.5 15.75,595 5,595 5,584.25 13.5,584.25 13.5,575.75 5,575.75 5,565"/>
<polygon id="0x146ce20" class="l71d20" points="55.75,405 55.75,413.5 64.25,413.5 64.25,405 75,405 75,415.75 66.5,415.75 66.5,424.25 75,424.25 75,435 64.25,435 64.25,426.5 55.75,426.5 55.75,435 45,435 45,424.25 53.5,424.25 53.5,415.75 45,415.75 45,405"/>
<polygon id="0x146cfe0" class="l71d20" points="55.75,445 55.75,453.5 64.25,453.5 64.25,445 75,445 75,455.75 66.5,455.75 66.5,464.25 75,464.25 75,475 64.25,475 64.25,466.5 55.75,466.5 55.75,475 45,475 45,464.25 53.5,464.25 53.5,455.75 45,455.75 45,445"/>
<polygon id="0x146d1a0" class="l71d20" points="55.75,485 55.75,493.5 64.25,493.5 64.25,485 75,485 75,495.75 66.5,495.75 66.5,504.25 75,504.25 75,515 64.25,515 64.25,506.5 55.75,506.5 55.75,515 45,515 45,504.25 53.5,504.25 53.5,495.75 45,495.75 45,485"/>
<polygon id="0x146d360" class="l71d20" points="55.75,525 55.75,533.5 64.25,533.5 64.25,525 75,525 75,535.75 66.5,535.75 66.5,544.25 75,544.25 75,555 64.25,555 64.25,546.5 55.75,546.5 55.75,555 45,555 45,544.25 53.5,544.25 53.5,535.75 45,535.75 45,525"/>
<polygon id="0x146d520" class="l71d20" points="55.75,565 55.75,573.5 64.25,573.5 64.25,565 75,565 75,575.75 66.5,575.75 66.5,584.25 75,584.25 75,595 64.25,595 64.25,586.5 55.75,586.5 55.75,595 45,595 45,584.25 53.5,584.25 53.5,575.75 45,575.75 45,565"/>
<polygon id="0x146d6e0" class="l71d20" points="55.75,605 55.75,613.5 64.25,613.5 64.25,605 75,605 75,615.75 66.5,615.75 66.5,624.25 75,624.25 75,635 64.25,635 64.25,626.5 55.75,626.5 55.75,635 45,635 45,624.25 53.5,624.25 53.5,615.75 45,615.75 45,605"/>
<polygon id="0x146d8a0" class="l71d20" points="95.75,405 95.75,413.5 104.25,413.5 104.25,405 115,405 115,415.75 106.5,415.75 106.5,424.25 115,424.25 115,435 104.25,435 104.25,426.5 95.75,426.5 95.75,435 85,435 85,424.25 93.5,424.25 93.5,415.75 85,415.75 85,405"/>
<polygon id="0x146da60" class="l71d20" points="95.75,605 95.75,613.5 104.25,613.5 104.25,605 115,605 115,615.75 106.5,615.75 106.5,624.25 115,624.25 115,635 104.25,635 104.25,626.5 95.75,626.5 95.75,635 85,635 85,624.25 93.5,624.25 93.5,615.75 85,615.75 85,605"/>
<polygon id="0x146dc20" class="l71d20" points="135.75,405 135.75,413.5 144.25,413.5 144.25,405 155,405 155,415.75 146.5,415.75 146.5,424.25 155,424.25 155,435 144.25,435 144.25,426.5 135.75,426.5 135.75,435 125,435 125,424.25 133.5,424.25 133.5,415.75 125,415.75 125,405"/>
<polygon id="0x146dde0" class="l71d20" points="135.75,605 135.75,613.5 144.25,613.5 144.25,605 155,605 155,615.75 146.5,615.75 146.5,624.25 155,624.25 155,635 144.25,635 144.25,626.5 135.75,626.5 135.75,635 125,635 125,624.25 133.5,624.25 133.5,615.75 125,615.75 125,605"/>
<polygon id="0x146dfa0" class="l71d20" points="175.75,405 175.75,413.5 184.25,413.5 184.25,405 195,405 195,415.75 186.5,415.75 186.5,424.25 195,424.25 195,435 184.25,435 184.25,426.5 175.75,426.5 175.75,435 165,435 165,424.25 173.5,424.25 173.5,415.75 165,415.75 165,405"/>
<polygon id="0x146e160" class="l71d20" points="175.75,605 175.75,613.5 184.25,613.5 184.25,605 195,605 195,615.75 186.5,615.75 186.5,624.25 195,624.25 195,635 184.25,635 184.25,626.5 175.75,626.5 175.75,635 165,635 165,624.25 173.5,624.25 173.5,615.75 165,615.75 165,605"/>
<polygon id="0x146e320" class="l71d20" points="215.75,405 215.75,413.5 224.25,413.5 224.25,405 235,405 235,415.75 226.5,415.75 226.5,424.25 235,424.25 235,435 224.25,435 224.25,426.5 215.75,426.5 215.75,435 205,435 205,424.25 213.5,424.25 213.5,415.75 205,415.75 205,405"/>
<polygon id="0x146e4e0" class="l71d20" points="215.75,605 215.75,613.5 224.25,613.5 224.25,605 235,605 235,615.75 226.5,615.75 226.5,624.25 235,624.25 235,635 224.25,635 224.25,626.5 215.75,626.5 215.75,635 205,635 205,624.25 213.5,624.25 213.5,615.75 205,615.75 205,605"/>
<polygon id="0x146e6a0" class="l71d20" points="255.75,405 255.75,413.5 264.25,413.5 264.25,405 275,405 275,415.75 266.5,415.75 266.5,424.25 275,424.25 275,435 264.25,435 264.25,426.5 255.75,426.5 255.75,435 245,435 245,424.25 253.5,424.25 253.5,415.75 245,415.75 245,405"/>
<polygon id="0x146e860" class="l71d20" points="255.75,445 255.75,453.5 264.25,453.5 264.25,445 275,445 275,455.75 266.5,455.75 266.5,464.25 275,464.25 275,475 264.25,475 264.25,466.5 255.75,466.5 255.75,475 245,475 245,464.25 253.5,464.25 253.5,455.75 245,455.75 245,445"/>
<polygon id="0x146ea20" class="l71d20" points="255.75,485 255.75,493.5 264.25,493.5 264.25,485 275,485 275,495.75 266.5,495.75 266.5,504.25 275,504.25 275,515 264.25,515 264.25,506.5 255.75,506.5 255.75,515 245,515 245,504.25 253.5,504.25 253.5,495.75 245,495.75 245,485"/>
<polygon id="0x146ebe0" class="l71d20" points="255.75,525 255.75,533.5 264.25,533.5 264.25,525 275,525 275,535.75 266.5,535.75 266.5,544.25 275,544.25 275,555 264.25,555 264.25,546.5 255.75,546.5 255.75,555 245,555 245,544.25 253.5,544.25 253.5,535.75 245,535.75 245,525"/>
<polygon id="0x146eda0" class="l71d20" points="255.75,565 255.75,573.5 264.25,573.5 264.25,565 275,565 275,575.75 266.5,575.75 266.5,584.25 275,584.25 275,595 264.25,595 264.25,586.5 255.75,586.5 255.75,595 245,595 245,584.25 253.5,584.25 253.5,575.75 245,575.75 245,565"/>
<polygon id="0x146ef60" class="l71d20" points="255.75,605 255.75,613.5 264.25,613.5 264.25,605 275,605 275,615.75 266.5,615.75 266.5,624.25 275,624.25 275,635 264.25,635 264.25,626.5 255.75,626.5 255.75,635 245,635 245,624.25 253.5,624.25 253.5,615.75 245,615.75 245,605"/>
<polygon id="0x146f120" class="l71d20" points="295.75,445 295.75,453.5 304.25,453.5 304.25,445 315,445 315,455.75 306.5,455.75 306.5,464.25 315,464.25 315,475 304.25,475 304.25,466.5 295.75,466.5 295.75,475 285,475 285,464.25 293.5,464.25 293.5,455.75 285,455.75 285,445"/>
<polygon id="0x146f2e0" class="l71d20" points="295.75,565 295.75,573.5 304.25,573.5 304.25,565 315,565 315,575.75 306.5,575.75 306.5,584.25 315,584.25 315,595 304.25,595 304.25,586.5 295.75,586.5 295.75,595 285,595 285,584.25 293.5,584.25 293.5,575.75 285,575.75 285,565"/>
<polygon id="0x146f4a0" class="l71d20" points="415.75,45 415.75,53.5 424.25,53.5 424.25,45 435,45 435,55.75 426.5,55.75 426.5,64.25 435,64.25 435,75 424.25,75 424.25,66.5 415.75,66.5 415.75,75 405,75 405,64.25 413.5,64.25 413.5,55.75 405,55.75 405,45"/>
<polygon id="0x146f660" class="l71d20" points="415.75,125 415.75,133.5 424.25,133.5 424.25,125 435,125 435,135.75 426.5,135.75 426.5,144.25 435,144.25 435,155 424.25,155 424.25,146.5 415.75,146.5 415.75,155 405,155 405,144.25 413.5,144.25 413.5,135.75 405,135.75 405,125"/>
<polygon id="0x146f820" class="l71d20" points="415.75,165 415.75,173.5 424.25,173.5 424.25,165 435,165 435,175.75 426.5,175.75 426.5,184.25 435,184.25 435,195 424.25,195 424.25,186.5 415.75,186.5 415.75,195 405,195 405,184.25 413.5,184.25 413.5,175.75 405,175.75 405,165"/>
<polygon id="0x146f890" class="l71d20" points="415.75,245 415.75,253.5 424.25,253.5 424.25,245 435,245 435,255.75 426.5,255.75 426.5,264.25 435,264.25 435,275 424.25,275 424.25,266.5 415.75,266.5 415.75,275 405,275 405,264.25 413.5,264.25 413.5,255.75 405,255.75 405,245"/>
<polygon id="0x12748a0" class="l71d20" points="455.75,5 455.75,13.5 464.25,13.5 464.25,5 475,5 475,15.75 466.5,15.75 466.5,24.25 475,24.25 475,35 464.25,35 464.25,26.5 455.75,26.5 455.75,35 445,35 445,24.25 453.5,24.25 453.5,15.75 445,15.75 445,5"/>
<polygon id="0x1410690" class="l71d20" points="455.75,85 455.75,93.5 464.25,93.5 464.25,85 475,85 475,95.75 466.5,95.75 466.5,104.25 475,104.25 475,115 464.25,115 464.25,106.5 455.75,106.5 455.75,115 445,115 445,104.25 453.5,104.25 453.5,95.75 445,95.75 445,85"/>
<polygon id="0x140c400" class="l71d20" points="455.75,205 455.75,213.5 464.25,213.5 464.25,205 475,205 475,215.75 466.5,215.75 466.5,224.25 475,224.25 475,235 464.25,235 464.25,226.5 455.75,226.5 455.75,235 445,235 445,224.25 453.5,224.25 453.5,215.75 445,215.75 445,205"/>
<polygon id="0x13bf9c0" class="l71d20" points="455.75,285 455.75,293.5 464.25,293.5 464.25,285 475,285 475,295.75 466.5,295.75 466.5,304.25 475,304.25 475,315 464.25,315 464.25,306.5 455.75,306.5 455.75,315 445,315 445,304.25 453.5,304.25 453.5,295.75 445,295.75 445,285"/>
<polygon id="0x1415e30" class="l71d20" points="495.75,5 495.75,13.5 504.25,13.5 504.25,5 515,5 515,15.75 506.5,15.75 506.5,24.25 515,24.25 515,35 504.25,35 504.25,26.5 495.75,26.5 495.75,35 485,35 485,24.25 493.5,24.25 493.5,15.75 485,15.75 485,5"/>
<polygon id="0x11d4160" class="l71d20" points="495.75,85 495.75,93.5 504.25,93.5 504.25,85 515,85 515,95.75 506.5,95.75 506.5,104.25 515,104.25 515,115 504.25,115 504.25,106.5 495.75,106.5 495.75,115 485,115 485,104.25 493.5,104.25 493.5,95.75 485,95.75 485,85"/>
<polygon id="0x13a3f80" class="l71d20" points="495.75,205 495.75,213.5 504.25,213.5 504.25,205 515,205 515,215.75 506.5,215.75 506.5,224.25 515,224.25 515,235 504.25,235 504.25,226.5 495.75,226.5 495.75,235 485,235 485,224.25 493.5,224.25 493.5,215.75 485,215.75 485,205"/>
<polygon id="0x12450c0" class="l71d20" points="495.75,285 495.75,293.5 504.25,293.5 504.25,285 515,285 515,295.75 506.5,295.75 506.5,304.25 515,304.25 515,315 504.25,315 504.25,306.5 495.75,306.5 495.75,315 485,315 485,304.25 493.5,304.25 493.5,295.75 485,295.75 485,285"/>
<polygon id="0x1245130" class="l71d20" points="535.75,5 535.75,13.5 544.25,13.5 544.25,5 555,5 555,15.75 546.5,15.75 546.5,24.25 555,24.25 555,35 544.25,35 544.25,26.5 535.75,26.5 535.75,35 525,35 525,24.25 533.5,24.25 533.5,15.75 525,15.75 525,5"/>
<polygon id="0x1283290" class="l71d20" points="535.75,85 535.75,93.5 544.25,93.5 544.25,85 555,85 555,95.75 546.5,95.75 546.5,104.25 555,104.25 555,115 544.25,115 544.25,106.5 535.75,106.5 535.75,115 525,115 525,104.25 533.5,104.25 533.5,95.75 525,95.75 525,85"/>
<polygon id="0x1283300" class="l71d20" points="535.75,205 535.75,213.5 544.25,213.5 544.25,205 555,205 555,215.75 546.5,215.75 546.5,224.25 555,224.25 555,235 544.25,235 544.25,226.5 535.75,226.5 535.75,235 525,235 525,224.25 533.5,224.25 533.5,215.75 525,215.75 525,205"/>
<polygon id="0x1288b80" class="l71d20" points="535.75,285 535.75,293.5 544.25,293.5 544.25,285 555,285 555,295.75 546.5,295.75 546.5,304.25 555,304.25 555,315 544.25,315 544.25,306.5 535.75,306.5 535.75,315 525,315 525,304.25 533.5,304.25 533.5,295.75 525,295.75 525,285"/>
<polygon id="0x1288bf0" class="l71d20" points="575.75,5 575.75,13.5 584.25,13.5 584.25,5 595,5 595,15.75 586.5,15.75 586.5,24.25 595,24.25 595,35 584.25,35 584.25,26.5 575.75,26.5 575.75,35 565,35 565,24.25 573.5,24.25 573.5,15.75 565,15.75 565,5"/>
<polygon id="0x12acdc0" class="l71d20" points="575.75,85 575.75,93.5 584.25,93.5 584.25,85 595,85 595,95.75 586.5,95.75 586.5,104.25 595,104.25 595,115 584.25,115 584.25,106.5 575.75,106.5 575.75,115 565,115 565,104.25 573.5,104.25 573.5,95.75 565,95.75 565,85"/>
<polygon id="0x12ace30" class="l71d20" points="575.75,205 575.75,213.5 584.25,213.5 584.25,205 595,205 595,215.75 586.5,215.75 586.5,224.25 595,224.25 595,235 584.25,235 584.25,226.5 575.75,226.5 575.75,235 565,235 565,224.25 573.5,224.25 573.5,215.75 565,215.75 565,205"/>
<polygon id="0x12da330" class="l71d20" points="575.75,285 575.75,293.5 584.25,293.5 584.25,285 595,285 595,295.75 586.5,295.75 586.5,304.25 595,304.25 595,315 584.25,315 584.25,306.5 575.75,306.5 575.75,315 565,315 565,304.25 573.5,304.25 573.5,295.75 565,295.75 565,285"/>
<polygon id="0x12da3a0" class="l71d20" points="615.75,45 615.75,53.5 624.25,53.5 624.25,45 635,45 635,55.75 626.5,55.75 626.5,64.25 635,64.25 635,75 624.25,75 624.25,66.5 615.75,66.5 615.75,75 605,75 605,64.25 613.5,64.25 613.5,55.75 605,55.75 605,45"/>
<polygon id="0x1369370" class="l71d20" points="615.75,125 615.75,133.5 624.25,133.5 624.25,125 635,125 635,135.75 626.5,135.75 626.5,144.25 635,144.25 635,155 624.25,155 624.25,146.5 615.75,146.5 615.75,155 605,155 605,144.25 613.5,144.25 613.5,135.75 605,135.75 605,125"/>
<polygon id="0x13693e0" class="l71d20" points="615.75,165 615.75,173.5 624.25,173.5 624.25,165 635,165 635,175.75 626.5,175.75 626.5,184.25 635,184.25 635,195 624.25,195 624.25,186.5 615.75,186.5 615.75,195 605,195 605,184.25 613.5,184.25 613.5,175.75 605,175.75 605,165"/>
<polygon id="0x13923a0" class="l71d20" points="615.75,245 615.75,253.5 624.25,253.5 624.25,245 635,245 635,255.75 626.5,255.75 626.5,264.25 635,264.25 635,275 624.25,275 624.25,266.5 615.75,266.5 615.75,275 605,275 605,264.25 613.5,264.25 613.5,255.75 605,255.75 605,245"/>
<polygon id="0x1392410" class="l71d20" points="375.75,365 375.75,373.5 384.25,373.5 384.25,365 395,365 395,375.75 386.5,375.75 386.5,384.25 395,384.25 395,395 384.25,395 384.25,386.5 375.75,386.5 375.75,395 365,395 365,384.25 373.5,384.25 373.5,375.75 365,375.75 365,365"/>
<polygon id="0x13de4b0" class="l71d20" points="375.75,405 375.75,413.5 384.25,413.5 384.25,405 395,405 395,415.75 386.5,415.75 386.5,424.25 395,424.25 395,435 384.25,435 384.25,426.5 375.75,426.5 375.75,435 365,435 365,424.25 373.5,424.25 373.5,415.75 365,415.75 365,405"/>
<polygon id="0x13de520" class="l71d20" points="375.75,485 375.75,493.5 384.25,493.5 384.25,485 395,485 395,495.75 386.5,495.75 386.5,504.25 395,504.25 395,515 384.25,515 384.25,506.5 375.75,506.5 375.75,515 365,515 365,504.25 373.5,504.25 373.5,495.75 365,495.75 365,485"/>
<polygon id="0x1404550" class="l71d20" points="375.75,525 375.75,533.5 384.25,533.5 384.25,525 395,525 395,535.75 386.5,535.75 386.5,544.25 395,544.25 395,555 384.25,555 384.25,546.5 375.75,546.5 375.75,555 365,555 365,544.25 373.5,544.25 373.5,535.75 365,535.75 365,525"/>
<polygon id="0x14045c0" class="l71d20" points="375.75,605 375.75,613.5 384.25,613.5 384.25,605 395,605 395,615.75 386.5,615.75 386.5,624.25 395,624.25 395,635 384.25,635 384.25,626.5 375.75,626.5 375.75,635 365,635 365,624.25 373.5,624.25 373.5,615.75 365,615.75 365,605"/>
<polygon id="0x144b020" class="l71d20" points="375.75,645 375.75,653.5 384.25,653.5 384.25,645 395,645 395,655.75 386.5,655.75 386.5,664.25 395,664.25 395,675 384.25,675 384.25,666.5 375.75,666.5 375.75,675 365,675 365,664.25 373.5,664.25 373.5,655.75 365,655.75 365,645"/>
<polygon id="0x144b090" class="l71d20" points="415.75,365 415.75,373.5 424.25,373.5 424.25,365 435,365 435,375.75 426.5,375.75 426.5,384.25 435,384.25 435,395 424.25,395 424.25,386.5 415.75,386.5 415.75,395 405,395 405,384.25 413.5,384.25 413.5,375.75 405,375.75 405,365"/>
<polygon id="0x1469300" class="l71d20" points="415.75,485 415.75,493.5 424.25,493.5 424.25,485 435,485 435,495.75 426.5,495.75 426.5,504.25 435,504.25 435,515 424.25,515 424.25,506.5 415.75,506.5 415.75,515 405,515 405,504.25 413.5,504.25 413.5,495.75 405,495.75 405,485"/>
<polygon id="0x1469370" class="l71d20" points="415.75,525 415.75,533.5 424.25,533.5 424.25,525 435,525 435,535.75 426.5,535.75 426.5,544.25 435,544.25 435,555 424.25,555 424.25,546.5 415.75,546.5 415.75,555 405,555 405,544.25 413.5,544.25 413.5,535.75 405,535.75 405,525"/>
<polygon id="0x1469650" class="l71d20" points="415.75,645 415.75,653.5 424.25,653.5 424.25,645 435,645 435,655.75 426.5,655.75 426.5,664.25 435,664.25 435,675 424.25,675 424.25,666.5 415.75,666.5 415.75,675 405,675 405,664.25 413.5,664.25 413.5,655.75 405,655.75 405,645"/>
<polygon id="0x14696c0" class="l71d20" points="455.75,445 455.75,453.5 464.25,453.5 464.25,445 475,445 475,455.75 466.5,455.75 466.5,464.25 475,464.25 475,475 464.25,475 464.25,466.5 455.75,466.5 455.75,475 445,475 445,464.25 453.5,464.25 453.5,455.75 445,455.75 445,445"/>
<polygon id="0x123c200" class="l71d20" points="455.75,565 455.75,573.5 464.25,573.5 464.25,565 475,565 475,575.75 466.5,575.75 466.5,584.25 475,584.25 475,595 464.25,595 464.25,586.5 455.75,586.5 455.75,595 445,595 445,584.25 453.5,584.25 453.5,575.75 445,575.75 445,565"/>
<polygon id="0x1323cb0" class="l71d20" points="495.75,405 495.75,413.5 504.25,413.5 504.25,405 515,405 515,415.75 506.5,415.75 506.5,424.25 515,424.25 515,435 504.25,435 504.25,426.5 495.75,426.5 495.75,435 485,435 485,424.25 493.5,424.25 493.5,415.75 485,415.75 485,405"/>
<polygon id="0x1376a00" class="l71d20" points="495.75,445 495.75,453.5 504.25,453.5 504.25,445 515,445 515,455.75 506.5,455.75 506.5,464.25 515,464.25 515,475 504.25,475 504.25,466.5 495.75,466.5 495.75,475 485,475 485,464.25 493.5,464.25 493.5,455.75 485,455.75 485,445"/>
<polygon id="0x139ce50" class="l71d20" points="495.75,485 495.75,493.5 504.25,493.5 504.25,485 515,485 515,495.75 506.5,495.75 506.5,504.25 515,504.25 515,515 504.25,515 504.25,506.5 495.75,506.5 495.75,515 485,515 485,504.25 493.5,504.25 493.5,495.75 485,495.75 485,485"/>
<polygon id="0x12ce4c0" class="l71d20" points="495.75,525 495.75,533.5 504.25,533.5 504.25,525 515,525 515,535.75 506.5,535.75 506.5,544.25 515,544.25 515,555 504.25,555 504.25,546.5 495.75,546.5 495.75,555 485,555 485,544.25 493.5,544.25 493.5,535.75 485,535.75 485,525"/>
<polygon id="0x120a950" class="l71d20" points="495.75,565 495.75,573.5 504.25,573.5 504.25,565 515,565 515,575.75 506.5,575.75 506.5,584.25 515,584.25 515,595 504.25,595 504.25,586.5 495.75,586.5 495.75,595 485,595 485,584.25 493.5,584.25 493.5,575.75 485,575.75 485,565"/>
<polygon id="0x12e9b70" class="l71d20" points="495.75,605 495.75,613.5 504.25,613.5 504.25,605 515,605 515,615.75 506.5,615.75 506.5,624.25 515,624.25 515,635 504.25,635 504.25,626.5 495.75,626.5 495.75,635 485,635 485,624.25 493.5,624.25 493.5,615.75 485,615.75 485,605"/>
<polygon id="0x134fef0" class="l71d20" points="535.75,405 535.75,413.5 544.25,413.5 544.25,405 555,405 555,415.75 546.5,415.75 546.5,424.25 555,424.25 555,435 544.25,435 544.25,426.5 535.75,426.5 535.75,435 525,435 525,424.25 533.5,424.25 533.5,415.75 525,415.75 525,405"/>
<polygon id="0x13b72d0" class="l71d20" points="535.75,445 535.75,453.5 544.25,453.5 544.25,445 555,445 555,455.75 546.5,455.75 546.5,464.25 555,464.25 555,475 544.25,475 544.25,466.5 535.75,466.5 535.75,475 525,475 525,464.25 533.5,464.25 533.5,455.75 525,455.75 525,445"/>
<polygon id="0x13be960" class="l71d20" points="535.75,485 535.75,493.5 544.25,493.5 544.25,485 555,485 555,495.75 546.5,495.75 546.5,504.25 555,504.25 555,515 544.25,515 544.25,506.5 535.75,506.5 535.75,515 525,515 525,504.25 533.5,504.25 533.5,495.75 525,495.75 525,485"/>
<polygon id="0x14698b0" class="l71d20" points="535.75,525 535.75,533.5 544.25,533.5 544.25,525 555,525 555,535.75 546.5,535.75 546.5,544.25 555,544.25 555,555 544.25,555 544.25,546.5 535.75,546.5 535.75,555 525,555 525,544.25 533.5,544.25 533.5,535.75 525,535.75 525,525"/>
<polygon id="0x1207600" class="l71d20" points="535.75,565 535.75,573.5 544.25,573.5 544.25,565 555,565 555,575.75 546.5,575.75 546.5,584.25 555,584.25 555,595 544.25,595 544.25,586.5 535.75,586.5 535.75,595 525,595 525,584.25 533.5,584.25 533.5,575.75 525,575.75 525,565"/>
<polygon id="0x1208df0" class="l71d20" points="535.75,605 535.75,613.5 544.25,613.5 544.25,605 555,605 555,615.75 546.5,615.75 546.5,624.25 555,624.25 555,635 544.25,635 544.25,626.5 535.75,626.5 535.75,635 525,635 525,624.25 533.5,624.25 533.5,615.75 525,615.75 525,605"/>
<polygon id="0x129ef30" class="l71d20" points="575.75,445 575.75,453.5 584.25,453.5 584.25,445 595,445 595,455.75 586.5,455.75 586.5,464.25 595,464.25 595,475 584.25,475 584.25,466.5 575.75,466.5 575.75,475 565,475 565,464.25 573.5,464.25 573.5,455.75 565,455.75 565,445"/>
<polygon id="0x12adbb0" class="l71d20" points="575.75,565 575.75,573.5 584.25,573.5 584.25,565 595,565 595,575.75 586.5,575.75 586.5,584.25 595,584.25 595,595 584.25,595 584.25,586.5 575.75,586.5 575.75,595 565,595 565,584.25 573.5,584.25 573.5,575.75 565,575.75 565,565"/>
<polygon id="0x12d3410" class="l71d20" points="615.75,365 615.75,373.5 624.25,373.5 624.25,365 635,365 635,375.75 626.5,375.75 626.5,384.25 635,384.25 635,395 624.25,395 624.25,386.5 615.75,386.5 615.75,395 605,395 605,384.25 613.5,384.25 613.5,375.75 605,375.75 605,365"/>
<polygon id="0x13645a0" class="l71d20" points="615.75,485 615.75,493.5 624.25,493.5 624.25,485 635,485 635,495.75 626.5,495.75 626.5,504.25 635,504.25 635,515 624.25,515 624.25,506.5 615.75,506.5 615.75,515 605,515 605,504.25 613.5,504.25 613.5,495.75 605,495.75 605,485"/>
<polygon id="0x1244350" class="l71d20" points="615.75,525 615.75,533.5 624.25,533.5 624.25,525 635,525 635,535.75 626.5,535.75 626.5,544.25 635,544.25 635,555 624.25,555 624.25,546.5 615.75,546.5 615.75,555 605,555 605,544.25 613.5,544.25 613.5,535.75 605,535.75 605,525"/>
<polygon id="0x12bb040" class="l71d20" points="615.75,645 615.75,653.5 624.25,653.5 624.25,645 635,645 635,655.75 626.5,655.75 626.5,664.25 635,664.25 635,675 624.25,675 624.25,666.5 615.75,666.5 615.75,675 605,675 605,664.25 613.5,664.25 613.5,655.75 605,655.75 605,645"/>
<polygon id="0x12d4d90" class="l71d20" points="655.75,365 655.75,373.5 664.25,373.5 664.25,365 675,365 675,375.75 666.5,375.75 666.5,384.25 675,384.25 675,395 664.25,395 664.25,386.5 655.75,386.5 655.75,395 645,395 645,384.25 653.5,384.25 653.5,375.75 645,375.75 645,365"/>
<polygon id="0x11d4880" class="l71d20" points="655.75,405 655.75,413.5 664.25,413.5 664.25,405 675,405 675,415.75 666.5,415.75 666.5,424.25 675,424.25 675,435 664.25,435 664.25,426.5 655.75,426.5 655.75,435 645,435 645,424.25 653.5,424.25 653.5,415.75 645,415.75 645,405"/>
<polygon id="0x13fb790" class="l71d20" points="655.75,485 655.75,493.5 664.25,493.5 664.25,485 675,485 675,495.75 666.5,495.75 666.5,504.25 675,504.25 675,515 664.25,515 664.25,506.5 655.75,506.5 655.75,515 645,515 645,504.25 653.5,504.25 653.5,495.75 645,495.75 645,485"/>
<polygon id="0x13b4120" class="l71d20" points="655.75,525 655.75,533.5 664.25,533.5 664.25,525 675,525 675,535.75 666.5,535.75 666.5,544.25 675,544.25 675,555 664.25,555 664.25,546.5 655.75,546.5 655.75,555 645,555 645,544.25 653.5,544.25 653.5,535.75 645,535.75 645,525"/>
<polygon id="0x1451d00" class="l71d20" points="655.75,605 655.75,613.5 664.25,613.5 664.25,605 675,605 675,615.75 666.5,615.75 666.5,624.25 675,624.25 675,635 664.25,635 664.25,626.5 655.75,626.5 655.75,635 645,635 645,624.25 653.5,624.25 653.5,615.75 645,615.75 645,605"/>
<polygon id="0x14369d0" class="l71d20" points="655.75,645 655.75,653.5 664.25,653.5 664.25,645 675,645 675,655.75 666.5,655.75 666.5,664.25 675,664.25 675,675 664.25,675 664.25,666.5 655.75,666.5 655.75,675 645,675 645,664.25 653.5,664.25 653.5,655.75 645,655.75 645,645"/>
<polygon id="0x121b900" class="l71d20" points="735.75,5 735.75,13.5 744.25,13.5 744.25,5 755,5 755,15.75 746.5,15.75 746.5,24.25 755,24.25 755,35 744.25,35 744.25,26.5 735.75,26.5 735.75,35 725,35 725,24.25 733.5,24.25 733.5,15.75 725,15.75 725,5"/>
<polygon id="0x1285a40" class="l71d20" points="735.75,45 735.75,53.5 744.25,53.5 744.25,45 755,45 755,55.75 746.5,55.75 746.5,64.25 755,64.25 755,75 744.25,75 744.25,66.5 735.75,66.5 735.75,75 725,75 725,64.25 733.5,64.25 733.5,55.75 725,55.75 725,45"/>
<polygon id="0x134c4c0" class="l71d20" points="735.75,85 735.75,93.5 744.25,93.5 744.25,85 755,85 755,95.75 746.5,95.75 746.5,104.25 755,104.25 755,115 744.25,115 744.25,106.5 735.75,106.5 735.75,115 725,115 725,104.25 733.5,104.25 733.5,95.75 725,95.75 725,85"/>
<polygon id="0x1353060" class="l71d20" points="735.75,205 735.75,213.5 744.25,213.5 744.25,205 755,205 755,215.75 746.5,215.75 746.5,224.25 755,224.25 755,235 744.25,235 744.25,226.5 735.75,226.5 735.75,235 725,235 725,224.25 733.5,224.25 733.5,215.75 725,215.75 725,205"/>
<polygon id="0x140d370" class="l71d20" points="735.75,245 735.75,253.5 744.25,253.5 744.25,245 755,245 755,255.75 746.5,255.75 746.5,264.25 755,264.25 755,275 744.25,275 744.25,266.5 735.75,266.5 735.75,275 725,275 725,264.25 733.5,264.25 733.5,255.75 725,255.75 725,245"/>
<polygon id="0x13cfc50" class="l71d20" points="735.75,285 735.75,293.5 744.25,293.5 744.25,285 755,285 755,295.75 746.5,295.75 746.5,304.25 755,304.25 755,315 744.25,315 744.25,306.5 735.75,306.5 735.75,315 725,315 725,304.25 733.5,304.25 733.5,295.75 725,295.75 725,285"/>
<polygon id="0x1469410" class="l71d20" points="775.75,5 775.75,13.5 784.25,13.5 784.25,5 795,5 795,15.75 786.5,15.75 786.5,24.25 795,24.25 795,35 784.25,35 784.25,26.5 775.75,26.5 775.75,35 765,35 765,24.25 773.5,24.25 773.5,15.75 765,15.75 765,5"/>
<polygon id="0x1469530" class="l71d20" points="775.75,125 775.75,133.5 784.25,133.5 784.25,125 795,125 795,135.75 786.5,135.75 786.5,144.25 795,144.25 795,155 784.25,155 784.25,146.5 775.75,146.5 775.75,155 765,155 765,144.25 773.5,144.25 773.5,135.75 765,135.75 765,125"/>
<polygon id="0x1395070" class="l71d20" points="775.75,165 775.75,173.5 784.25,173.5 784.25,165 795,165 795,175.75 786.5,175.75 786.5,184.25 795,184.25 795,195 784.25,195 784.25,186.5 775.75,186.5 775.75,195 765,195 765,184.25 773.5,184.25 773.5,175.75 765,175.75 765,165"/>
<polygon id="0x13950e0" class="l71d20" points="775.75,285 775.75,293.5 784.25,293.5 784.25,285 795,285 795,295.75 786.5,295.75 786.5,304.25 795,304.25 795,315 784.25,315 784.25,306.5 775.75,306.5 775.75,315 765,315 765,304.25 773.5,304.25 773.5,295.75 765,295.75 765,285"/>
<polygon id="0x1397ae0" class="l71d20" points="815.75,45 815.75,53.5 824.25,53.5 824.25,45 835,45 835,55.75 826.5,55.75 826.5,64.25 835,64.25 835,75 824.25,75 824.25,66.5 815.75,66.5 815.75,75 805,75 805,64.25 813.5,64.25 813.5,55.75 805,55.75 805,45"/>
<polygon id="0x1397b50" class="l71d20" points="815.75,245 815.75,253.5 824.25,253.5 824.25,245 835,245 835,255.75 826.5,255.75 826.5,264.25 835,264.25 835,275 824.25,275 824.25,266.5 815.75,266.5 815.75,275 805,275 805,264.25 813.5,264.25 813.5,255.75 805,255.75 805,245"/>
<polygon id="0x13b07d0" class="l71d20" points="855.75,5 855.75,13.5 864.25,13.5 864.25,5 875,5 875,15.75 866.5,15.75 866.5,24.25 875,24.25 875,35 864.25,35 864.25,26.5 855.75,26.5 855.75,35 845,35 845,24.25 853.5,24.25 853.5,15.75 845,15.75 845,5"/>
<polygon id="0x1349310" class="l71d20" points="855.75,45 855.75,53.5 864.25,53.5 864.25,45 875,45 875,55.75 866.5,55.75 866.5,64.25 875,64.25 875,75 864.25,75 864.25,66.5 855.75,66.5 855.75,75 845,75 845,64.25 853.5,64.25 853.5,55.75 845,55.75 845,45"/>
<polygon id="0x1469480" class="l71d20" points="855.75,85 855.75,93.5 864.25,93.5 864.25,85 875,85 875,95.75 866.5,95.75 866.5,104.25 875,104.25 875,115 864.25,115 864.25,106.5 855.75,106.5 855.75,115 845,115 845,104.25 853.5,104.25 853.5,95.75 845,95.75 845,85"/>
<polygon id="0x140d3e0" class="l71d20" points="855.75,125 855.75,133.5 864.25,133.5 864.25,125 875,125 875,135.75 866.5,135.75 866.5,144.25 875,144.25 875,155 864.25,155 864.25,146.5 855.75,146.5 855.75,155 845,155 845,144.25 853.5,144.25 853.5,135.75 845,135.75 845,125"/>
<polygon id="0x134c530" class="l71d20" points="855.75,165 855.75,173.5 864.25,173.5 864.25,165 875,165 875,175.75 866.5,175.75 866.5,184.25 875,184.25 875,195 864.25,195 864.25,186.5 855.75,186.5 855.75,195 845,195 845,184.25 853.5,184.25 853.5,175.75 845,175.75 845,165"/>
<polygon id="0x121b970" class="l71d20" points="855.75,205 855.75,213.5 864.25,213.5 864.25,205 875,205 875,215.75 866.5,215.75 866.5,224.25 875,224.25 875,235 864.25,235 864.25,226.5 855.75,226.5 855.75,235 845,235 845,224.25 853.5,224.25 853.5,215.75 845,215.75 845,205"/>
<polygon id="0x13a6950" class="l71d20" points="855.75,245 855.75,253.5 864.25,253.5 864.25,245 875,245 875,255.75 866.5,255.75 866.5,264.25 875,264.25 875,275 864.25,275 864.25,266.5 855.75,266.5 855.75,275 845,275 845,264.25 853.5,264.25 853.5,255.75 845,255.75 845,245"/>
<polygon id="0x13b0840" class="l71d20" points="855.75,285 855.75,293.5 864.25,293.5 864.25,285 875,285 875,295.75 866.5,295.75 866.5,304.25 875,304.25 875,315 864.25,315 864.25,306.5 855.75,306.5 855.75,315 845,315 845,304.25 853.5,304.25 853.5,295.75 845,295.75 845,285"/>
<polygon id="0x1233350" class="l71d20" points="895.75,5 895.75,13.5 904.25,13.5 904.25,5 915,5 915,15.75 906.5,15.75 906.5,24.25 915,24.25 915,35 904.25,35 904.25,26.5 895.75,26.5 895.75,35 885,35 885,24.25 893.5,24.25 893.5,15.75 885,15.75 885,5"/>
<polygon id="0x1416fe0" class="l71d20" points="895.75,45 895.75,53.5 904.25,53.5 904.25,45 915,45 915,55.75 906.5,55.75 906.5,64.25 915,64.25 915,75 904.25,75 904.25,66.5 895.75,66.5 895.75,75 885,75 885,64.25 893.5,64.25 893.5,55.75 885,55.75 885,45"/>
<polygon id="0x141a410" class="l71d20" points="895.75,85 895.75,93.5 904.25,93.5 904.25,85 915,85 915,95.75 906.5,95.75 906.5,104.25 915,104.25 915,115 904.25,115 904.25,106.5 895.75,106.5 895.75,115 885,115 885,104.25 893.5,104.25 893.5,95.75 885,95.75 885,85"/>
<polygon id="0x123fb70" class="l71d20" points="895.75,125 895.75,133.5 904.25,133.5 904.25,125 915,125 915,135.75 906.5,135.75 906.5,144.25 915,144.25 915,155 904.25,155 904.25,146.5 895.75,146.5 895.75,155 885,155 885,144.25 893.5,144.25 893.5,135.75 885,135.75 885,125"/>
<polygon id="0x10d1710" class="l71d20" points="895.75,165 895.75,173.5 904.25,173.5 904.25,165 915,165 915,175.75 906.5,175.75 906.5,184.25 915,184.25 915,195 904.25,195 904.25,186.5 895.75,186.5 895.75,195 885,195 885,184.25 893.5,184.25 893.5,175.75 885,175.75 885,165"/>
<polygon id="0x12b7860" class="l71d20" points="895.75,205 895.75,213.5 904.25,213.5 904.25,205 915,205 915,215.75 906.5,215.75 906.5,224.25 915,224.25 915,235 904.25,235 904.25,226.5 895.75,226.5 895.75,235 885,235 885,224.25 893.5,224.25 893.5,215.75 885,215.75 885,205"/>
<polygon id="0x12b78d0" class="l71d20" points="895.75,245 895.75,253.5 904.25,253.5 904.25,245 915,245 915,255.75 906.5,255.75 906.5,264.25 915,264.25 915,275 904.25,275 904.25,266.5 895.75,266.5 895.75,275 885,275 885,264.25 893.5,264.25 893.5,255.75 885,255.75 885,245"/>
<polygon id="0x1345670" class="l71d20" points="895.75,285 895.75,293.5 904.25,293.5 904.25,285 915,285 915,295.75 906.5,295.75 906.5,304.25 915,304.25 915,315 904.25,315 904.25,306.5 895.75,306.5 895.75,315 885,315 885,304.25 893.5,304.25 893.5,295.75 885,295.75 885,285"/>
<polygon id="0x13456e0" class="l71d20" points="935.75,45 935.75,53.5 944.25,53.5 944.25,45 955,45 955,55.75 946.5,55.75 946.5,64.25 955,64.25 955,75 944.25,75 944.25,66.5 935.75,66.5 935.75,75 925,75 925,64.25 933.5,64.25 933.5,55.75 925,55.75 925,45"/>
<polygon id="0x13af8b0" class="l71d20" points="935.75,245 935.75,253.5 944.25,253.5 944.25,245 955,245 955,255.75 946.5,255.75 946.5,264.25 955,264.25 955,275 944.25,275 944.25,266.5 935.75,266.5 935.75,275 925,275 925,264.25 933.5,264.25 933.5,255.75 925,255.75 925,245"/>
<polygon id="0x13af920" class="l71d20" points="975.75,5 975.75,13.5 984.25,13.5 984.25,5 995,5 995,15.75 986.5,15.75 986.5,24.25 995,24.25 995,35 984.25,35 984.25,26.5 975.75,26.5 975.75,35 965,35 965,24.25 973.5,24.25 973.5,15.75 965,15.75 965,5"/>
<polygon id="0x1415450" class="l71d20" points="975.75,125 975.75,133.5 984.25,133.5 984.25,125 995,125 995,135.75 986.5,135.75 986.5,144.25 995,144.25 995,155 984.25,155 984.25,146.5 975.75,146.5 975.75,155 965,155 965,144.25 973.5,144.25 973.5,135.75 965,135.75 965,125"/>
<polygon id="0x14154c0" class="l71d20" points="975.75,165 975.75,173.5 984.25,173.5 984.25,165 995,165 995,175.75 986.5,175.75 986.5,184.25 995,184.25 995,195 984.25,195 984.25,186.5 975.75,186.5 975.75,195 965,195 965,184.25 973.5,184.25 973.5,175.75 965,175.75 965,165"/>
<polygon id="0x144a730" class="l71d20" points="975.75,285 975.75,293.5 984.25,293.5 984.25,285 995,285 995,295.75 986.5,295.75 986.5,304.25 995,304.25 995,315 984.25,315 984.25,306.5 975.75,306.5 975.75,315 965,315 965,304.25 973.5,304.25 973.5,295.75 965,295.75 965,285"/>
<polygon id="0x144a7a0" class="l71d20" points="1015.75,5 1015.75,13.5 1024.25,13.5 1024.25,5 1035,5 1035,15.75 1026.5,15.75 1026.5,24.25 1035,24.25 1035,35 1024.25,35 1024.25,26.5 1015.75,26.5 1015.75,35 1005,35 1005,24.25 1013.5,24.25 1013.5,15.75 1005,15.75 1005,5"/>
<polygon id="0x11748b0" class="l71d20" points="1015.75,45 1015.75,53.5 1024.25,53.5 1024.25,45 1035,45 1035,55.75 1026.5,55.75 1026.5,64.25 1035,64.25 1035,75 1024.25,75 1024.25,66.5 1015.75,66.5 1015.75,75 1005,75 1005,64.25 1013.5,64.25 1013.5,55.75 1005,55.75 1005,45"/>
<polygon id="0x1174920" class="l71d20" points="1015.75,85 1015.75,93.5 1024.25,93.5 1024.25,85 1035,85 1035,95.75 1026.5,95.75 1026.5,104.25 1035,104.25 1035,115 1024.25,115 1024.25,106.5 1015.75,106.5 1015.75,115 1005,115 1005,104.25 1013.5,104.25 1013.5,95.75 1005,95.75 1005,85"/>
<polygon id="0x117f2e0" class="l71d20" points="1015.75,205 1015.75,213.5 1024.25,213.5 1024.25,205 1035,205 1035,215.75 1026.5,215.75 1026.5,224.25 1035,224.25 1035,235 1024.25,235 1024.25,226.5 1015.75,226.5 1015.75,235 1005,235 1005,224.25 1013.5,224.25 1013.5,215.75 1005,215.75 1005,205"/>
<polygon id="0x117f350" class="l71d20" points="1015.75,245 1015.75,253.5 1024.25,253.5 1024.25,245 1035,245 1035,255.75 1026.5,255.75 1026.5,264.25 1035,264.25 1035,275 1024.25,275 1024.25,266.5 1015.75,266.5 1015.75,275 1005,275 1005,264.25 1013.5,264.25 1013.5,255.75 1005,255.75 1005,245"/>
<polygon id="0x1470c20" class="l71d20" points="1015.75,285 1015.75,293.5 1024.25,293.5 1024.25,285 1035,285 1035,295.75 1026.5,295.75 1026.5,304.25 1035,304.25 1035,315 1024.25,315 1024.25,306.5 1015.75,306.5 1015.75,315 1005,315 1005,304.25 1013.5,304.25 1013.5,295.75 1005,295.75 1005,285"/>
<polygon id="0x1470c90" class="l71d20" points="735.75,365 735.75,373.5 744.25,373.5 744.25,365 755,365 755,375.75 746.5,375.75 746.5,384.25 755,384.25 755,395 744.25,395 744.25,386.5 735.75,386.5 735.75,395 725,395 725,384.25 733.5,384.25 733.5,375.75 725,375.75 725,365"/>
<polygon id="0x1216ed0" class="l71d20" points="735.75,645 735.75,653.5 744.25,653.5 744.25,645 755,645 755,655.75 746.5,655.75 746.5,664.25 755,664.25 755,675 744.25,675 744.25,666.5 735.75,666.5 735.75,675 725,675 725,664.25 733.5,664.25 733.5,655.75 725,655.75 725,645"/>
<polygon id="0x1216f40" class="l71d20" points="775.75,365 775.75,373.5 784.25,373.5 784.25,365 795,365 795,375.75 786.5,375.75 786.5,384.25 795,384.25 795,395 784.25,395 784.25,386.5 775.75,386.5 775.75,395 765,395 765,384.25 773.5,384.25 773.5,375.75 765,375.75 765,365"/>
<polygon id="0x1210b10" class="l71d20" points="775.75,645 775.75,653.5 784.25,653.5 784.25,645 795,645 795,655.75 786.5,655.75 786.5,664.25 795,664.25 795,675 784.25,675 784.25,666.5 775.75,666.5 775.75,675 765,675 765,664.25 773.5,664.25 773.5,655.75 765,655.75 765,645"/>
<polygon id="0x1210b80" class="l71d20" points="815.75,365 815.75,373.5 824.25,373.5 824.25,365 835,365 835,375.75 826.5,375.75 826.5,384.25 835,384.25 835,395 824.25,395 824.25,386.5 815.75,386.5 815.75,395 805,395 805,384.25 813.5,384.25 813.5,375.75 805,375.75 805,365"/>
<polygon id="0x1235500" class="l71d20" points="815.75,405 815.75,413.5 824.25,413.5 824.25,405 835,405 835,415.75 826.5,415.75 826.5,424.25 835,424.25 835,435 824.25,435 824.25,426.5 815.75,426.5 815.75,435 805,435 805,424.25 813.5,424.25 813.5,415.75 805,415.75 805,405"/>
<polygon id="0x1235570" class="l71d20" points="815.75,445 815.75,453.5 824.25,453.5 824.25,445 835,445 835,455.75 826.5,455.75 826.5,464.25 835,464.25 835,475 824.25,475 824.25,466.5 815.75,466.5 815.75,475 805,475 805,464.25 813.5,464.25 813.5,455.75 805,455.75 805,445"/>
<polygon id="0x124d580" class="l71d20" points="815.75,565 815.75,573.5 824.25,573.5 824.25,565 835,565 835,575.75 826.5,575.75 826.5,584.25 835,584.25 835,595 824.25,595 824.25,586.5 815.75,586.5 815.75,595 805,595 805,584.25 813.5,584.25 813.5,575.75 805,575.75 805,565"/>
<polygon id="0x124d5f0" class="l71d20" points="815.75,605 815.75,613.5 824.25,613.5 824.25,605 835,605 835,615.75 826.5,615.75 826.5,624.25 835,624.25 835,635 824.25,635 824.25,626.5 815.75,626.5 815.75,635 805,635 805,624.25 813.5,624.25 813.5,615.75 805,615.75 805,605"/>
<polygon id="0x126e410" class="l71d20" points="815.75,645 815.75,653.5 824.25,653.5 824.25,645 835,645 835,655.75 826.5,655.75 826.5,664.25 835,664.25 835,675 824.25,675 824.25,666.5 815.75,666.5 815.75,675 805,675 805,664.25 813.5,664.25 813.5,655.75 805,655.75 805,645"/>
<polygon id="0x126e480" class="l71d20" points="855.75,405 855.75,413.5 864.25,413.5 864.25,405 875,405 875,415.75 866.5,415.75 866.5,424.25 875,424.25 875,435 864.25,435 864.25,426.5 855.75,426.5 855.75,435 845,435 845,424.25 853.5,424.25 853.5,415.75 845,415.75 845,405"/>
<polygon id="0x12764d0" class="l71d20" points="855.75,485 855.75,493.5 864.25,493.5 864.25,485 875,485 875,495.75 866.5,495.75 866.5,504.25 875,504.25 875,515 864.25,515 864.25,506.5 855.75,506.5 855.75,515 845,515 845,504.25 853.5,504.25 853.5,495.75 845,495.75 845,485"/>
<polygon id="0x1276540" class="l71d20" points="855.75,525 855.75,533.5 864.25,533.5 864.25,525 875,525 875,535.75 866.5,535.75 866.5,544.25 875,544.25 875,555 864.25,555 864.25,546.5 855.75,546.5 855.75,555 845,555 845,544.25 853.5,544.25 853.5,535.75 845,535.75 845,525"/>
<polygon id="0x12dbb60" class="l71d20" points="855.75,605 855.75,613.5 864.25,613.5 864.25,605 875,605 875,615.75 866.5,615.75 866.5,624.25 875,624.25 875,635 864.25,635 864.25,626.5 855.75,626.5 855.75,635 845,635 845,624.25 853.5,624.25 853.5,615.75 845,615.75 845,605"/>
<polygon id="0x12dbbd0" class="l71d20" points="895.75,405 895.75,413.5 904.25,413.5 904.25,405 915,405 915,415.75 906.5,415.75 906.5,424.25 915,424.25 915,435 904.25,435 904.25,426.5 895.75,426.5 895.75,435 885,435 885,424.25 893.5,424.25 893.5,415.75 885,415.75 885,405"/>
<polygon id="0x12c9ec0" class="l71d20" points="895.75,485 895.75,493.5 904.25,493.5 904.25,485 915,485 915,495.75 906.5,495.75 906.5,504.25 915,504.25 915,515 904.25,515 904.25,506.5 895.75,506.5 895.75,515 885,515 885,504.25 893.5,504.25 893.5,495.75 885,495.75 885,485"/>
<polygon id="0x12c9f30" class="l71d20" points="895.75,525 895.75,533.5 904.25,533.5 904.25,525 915,525 915,535.75 906.5,535.75 906.5,544.25 915,544.25 915,555 904.25,555 904.25,546.5 895.75,546.5 895.75,555 885,555 885,544.25 893.5,544.25 893.5,535.75 885,535.75 885,525"/>
<polygon id="0x12b5540" class="l71d20" points="895.75,605 895.75,613.5 904.25,613.5 904.25,605 915,605 915,615.75 906.5,615.75 906.5,624.25 915,624.25 915,635 904.25,635 904.25,626.5 895.75,626.5 895.75,635 885,635 885,624.25 893.5,624.25 893.5,615.75 885,615.75 885,605"/>
<polygon id="0x12b55b0" class="l71d20" points="935.75,365 935.75,373.5 944.25,373.5 944.25,365 955,365 955,375.75 946.5,375.75 946.5,384.25 955,384.25 955,395 944.25,395 944.25,386.5 935.75,386.5 935.75,395 925,395 925,384.25 933.5,384.25 933.5,375.75 925,375.75 925,365"/>
<polygon id="0x1384c60" class="l71d20" points="935.75,405 935.75,413.5 944.25,413.5 944.25,405 955,405 955,415.75 946.5,415.75 946.5,424.25 955,424.25 955,435 944.25,435 944.25,426.5 935.75,426.5 935.75,435 925,435 925,424.25 933.5,424.25 933.5,415.75 925,415.75 925,405"/>
<polygon id="0x1384cd0" class="l71d20" points="935.75,445 935.75,453.5 944.25,453.5 944.25,445 955,445 955,455.75 946.5,455.75 946.5,464.25 955,464.25 955,475 944.25,475 944.25,466.5 935.75,466.5 935.75,475 925,475 925,464.25 933.5,464.25 933.5,455.75 925,455.75 925,445"/>
<polygon id="0x13f7720" class="l71d20" points="935.75,565 935.75,573.5 944.25,573.5 944.25,565 955,565 955,575.75 946.5,575.75 946.5,584.25 955,584.25 955,595 944.25,595 944.25,586.5 935.75,586.5 935.75,595 925,595 925,584.25 933.5,584.25 933.5,575.75 925,575.75 925,565"/>
<polygon id="0x13f7790" class="l71d20" points="935.75,605 935.75,613.5 944.25,613.5 944.25,605 955,605 955,615.75 946.5,615.75 946.5,624.25 955,624.25 955,635 944.25,635 944.25,626.5 935.75,626.5 935.75,635 925,635 925,624.25 933.5,624.25 933.5,615.75 925,615.75 925,605"/>
<polygon id="0x13b6a90" class="l71d20" points="935.75,645 935.75,653.5 944.25,653.5 944.25,645 955,645 955,655.75 946.5,655.75 946.5,664.25 955,664.25 955,675 944.25,675 944.25,666.5 935.75,666.5 935.75,675 925,675 925,664.25 933.5,664.25 933.5,655.75 925,655.75 925,645"/>
<polygon id="0x13b6b00" class="l71d20" points="975.75,365 975.75,373.5 984.25,373.5 984.25,365 995,365 995,375.75 986.5,375.75 986.5,384.25 995,384.25 995,395 984.25,395 984.25,386.5 975.75,386.5 975.75,395 965,395 965,384.25 973.5,384.25 973.5,375.75 965,375.75 965,365"/>
<polygon id="0x1411fe0" class="l71d20" points="975.75,645 975.75,653.5 984.25,653.5 984.25,645 995,645 995,655.75 986.5,655.75 986.5,664.25 995,664.25 995,675 984.25,675 984.25,666.5 975.75,666.5 975.75,675 965,675 965,664.25 973.5,664.25 973.5,655.75 965,655.75 965,645"/>
<polygon id="0x1412050" class="l71d20" points="1015.75,365 1015.75,373.5 1024.25,373.5 1024.25,365 1035,365 1035,375.75 1026.5,375.75 1026.5,384.25 1035,384.25 1035,395 1024.25,395 1024.25,386.5 1015.75,386.5 1015.75,395 1005,395 1005,384.25 1013.5,384.25 1013.5,375.75 1005,375.75 1005,365"/>
<polygon id="0x1423780" class="l71d20" points="1015.75,645 1015.75,653.5 1024.25,653.5 1024.25,645 1035,645 1035,655.75 1026.5,655.75 1026.5,664.25 1035,664.25 1035,675 1024.25,675 1024.25,666.5 1015.75,666.5 1015.75,675 1005,675 1005,664.25 1013.5,664.25 1013.5,655.75 1005,655.75 1005,645"/>
<polygon id="0x1469940" class="l235d4" points="0,0 40,0 40,40 0,40"/>
</g>
</svg>