<?xml version="1.0" encoding="utf-8" ?>
<svg baseProfile="tiny" height="600.0" version="1.2" viewBox="0 0 712.0 600.0" width="712.0" xmlns="http://www.w3.org/2000/svg" xmlns:ev="http://www.w3.org/2001/xml-events" xmlns:xlink="http://www.w3.org/1999/xlink"><defs /><g transform="translate(100,100) "><g id="JNWATR_PCH_2C1F2"><rect fill="green" fill-opacity="0.6" height="40.0" stroke="green" stroke-width="0.1" width="96.0" x="208.0" y="100.0" /><rect fill="green" fill-opacity="0.6" height="40.0" stroke="green" stroke-width="0.1" width="96.0" x="208.0" y="140.0" /><rect fill="green" fill-opacity="0.6" height="40.0" stroke="green" stroke-width="0.1" width="96.0" x="208.0" y="180.0" /><rect fill="green" fill-opacity="0.6" height="40.0" stroke="green" stroke-width="0.1" width="96.0" x="208.0" y="220.0" /><rect fill="green" fill-opacity="0.6" height="40.0" stroke="green" stroke-width="0.1" width="96.0" x="208.0" y="260.0" /><rect fill="green" fill-opacity="0.6" height="40.0" stroke="green" stroke-width="0.1" width="96.0" x="208.0" y="100.0" /><rect fill="green" fill-opacity="0.6" height="40.0" stroke="green" stroke-width="0.1" width="96.0" x="208.0" y="140.0" /><rect fill="green" fill-opacity="0.6" height="40.0" stroke="green" stroke-width="0.1" width="96.0" x="208.0" y="180.0" /><rect fill="green" fill-opacity="0.6" height="40.0" stroke="green" stroke-width="0.1" width="96.0" x="208.0" y="220.0" /><rect fill="green" fill-opacity="0.6" height="40.0" stroke="green" stroke-width="0.1" width="96.0" x="208.0" y="260.0" /><rect fill="green" fill-opacity="0.6" height="40.0" stroke="green" stroke-width="0.1" width="96.0" x="-48.0" y="-20.0" /><rect fill="green" fill-opacity="0.6" height="40.0" stroke="green" stroke-width="0.1" width="96.0" x="464.0" y="-20.0" /><rect fill="green" fill-opacity="0.6" height="40.0" stroke="green" stroke-width="0.1" width="96.0" x="-48.0" y="20.0" /><rect fill="green" fill-opacity="0.6" height="40.0" stroke="green" stroke-width="0.1" width="96.0" x="464.0" y="20.0" /><rect fill="green" fill-opacity="0.6" height="40.0" stroke="green" stroke-width="0.1" width="96.0" x="-48.0" y="60.0" /><rect fill="green" fill-opacity="0.6" height="40.0" stroke="green" stroke-width="0.1" width="96.0" x="464.0" y="60.0" /><rect fill="green" fill-opacity="0.6" height="40.0" stroke="green" stroke-width="0.1" width="96.0" x="-48.0" y="100.0" /><rect fill="green" fill-opacity="0.6" height="40.0" stroke="green" stroke-width="0.1" width="96.0" x="464.0" y="100.0" /><rect fill="green" fill-opacity="0.6" height="40.0" stroke="green" stroke-width="0.1" width="96.0" x="-48.0" y="140.0" /><rect fill="green" fill-opacity="0.6" height="40.0" stroke="green" stroke-width="0.1" width="96.0" x="464.0" y="140.0" /><rect fill="green" fill-opacity="0.6" height="40.0" stroke="green" stroke-width="0.1" width="96.0" x="-48.0" y="180.0" /><rect fill="green" fill-opacity="0.6" height="40.0" stroke="green" stroke-width="0.1" width="96.0" x="464.0" y="180.0" /><rect fill="green" fill-opacity="0.6" height="40.0" stroke="green" stroke-width="0.1" width="96.0" x="-48.0" y="220.0" /><rect fill="green" fill-opacity="0.6" height="40.0" stroke="green" stroke-width="0.1" width="96.0" x="464.0" y="220.0" /><rect fill="green" fill-opacity="0.6" height="40.0" stroke="green" stroke-width="0.1" width="96.0" x="-48.0" y="260.0" /><rect fill="green" fill-opacity="0.6" height="40.0" stroke="green" stroke-width="0.1" width="96.0" x="464.0" y="260.0" /><rect fill="green" fill-opacity="0.6" height="40.0" stroke="green" stroke-width="0.1" width="96.0" x="-48.0" y="300.0" /><rect fill="green" fill-opacity="0.6" height="40.0" stroke="green" stroke-width="0.1" width="96.0" x="464.0" y="300.0" /><rect fill="green" fill-opacity="0.6" height="40.0" stroke="green" stroke-width="0.1" width="96.0" x="-48.0" y="340.0" /><rect fill="green" fill-opacity="0.6" height="40.0" stroke="green" stroke-width="0.1" width="96.0" x="464.0" y="340.0" /><rect fill="green" fill-opacity="0.6" height="40.0" stroke="green" stroke-width="0.1" width="96.0" x="-48.0" y="380.0" /><rect fill="green" fill-opacity="0.6" height="40.0" stroke="green" stroke-width="0.1" width="96.0" x="464.0" y="380.0" /><rect fill="red" fill-opacity="0.6" height="22.0" stroke="red" stroke-width="0.1" width="352.0" x="80.0" y="-11.0" /><rect fill="red" fill-opacity="0.6" height="22.0" stroke="red" stroke-width="0.1" width="352.0" x="80.0" y="69.0" /><rect fill="red" fill-opacity="0.6" height="22.0" stroke="red" stroke-width="0.1" width="352.0" x="80.0" y="149.0" /><rect fill="red" fill-opacity="0.6" height="22.0" stroke="red" stroke-width="0.1" width="352.0" x="80.0" y="229.0" /><rect fill="red" fill-opacity="0.6" height="22.0" stroke="red" stroke-width="0.1" width="352.0" x="80.0" y="309.0" /><rect fill="red" fill-opacity="0.6" height="22.0" stroke="red" stroke-width="0.1" width="352.0" x="80.0" y="389.0" /><rect fill="yellow" fill-opacity="0.6" height="10.0" stroke="yellow" stroke-width="0.1" width="21.32" x="85.33" y="150.0" /><rect fill="yellow" fill-opacity="0.6" height="10.0" stroke="yellow" stroke-width="0.1" width="21.32" x="85.33" y="160.0" /><rect fill="yellow" fill-opacity="0.6" height="10.0" stroke="yellow" stroke-width="0.1" width="21.32" x="85.33" y="170.0" /><rect fill="yellow" fill-opacity="0.6" height="10.0" stroke="yellow" stroke-width="0.1" width="21.32" x="405.33" y="150.0" /><rect fill="yellow" fill-opacity="0.6" height="10.0" stroke="yellow" stroke-width="0.1" width="21.32" x="405.33" y="160.0" /><rect fill="yellow" fill-opacity="0.6" height="10.0" stroke="yellow" stroke-width="0.1" width="21.32" x="405.33" y="170.0" /><rect fill="yellow" fill-opacity="0.6" height="10.0" stroke="yellow" stroke-width="0.1" width="21.32" x="85.33" y="180.0" /><rect fill="yellow" fill-opacity="0.6" height="10.0" stroke="yellow" stroke-width="0.1" width="21.32" x="85.33" y="190.0" /><rect fill="yellow" fill-opacity="0.6" height="10.0" stroke="yellow" stroke-width="0.1" width="21.32" x="85.33" y="200.0" /><rect fill="yellow" fill-opacity="0.6" height="10.0" stroke="yellow" stroke-width="0.1" width="21.32" x="85.33" y="210.0" /><rect fill="yellow" fill-opacity="0.6" height="10.0" stroke="yellow" stroke-width="0.1" width="21.32" x="405.33" y="180.0" /><rect fill="yellow" fill-opacity="0.6" height="10.0" stroke="yellow" stroke-width="0.1" width="21.32" x="405.33" y="190.0" /><rect fill="yellow" fill-opacity="0.6" height="10.0" stroke="yellow" stroke-width="0.1" width="21.32" x="405.33" y="200.0" /><rect fill="yellow" fill-opacity="0.6" height="10.0" stroke="yellow" stroke-width="0.1" width="21.32" x="405.33" y="210.0" /><rect fill="yellow" fill-opacity="0.6" height="10.0" stroke="yellow" stroke-width="0.1" width="21.32" x="85.33" y="220.0" /><rect fill="yellow" fill-opacity="0.6" height="10.0" stroke="yellow" stroke-width="0.1" width="21.32" x="85.33" y="230.0" /><rect fill="yellow" fill-opacity="0.6" height="10.0" stroke="yellow" stroke-width="0.1" width="21.32" x="85.33" y="240.0" /><rect fill="yellow" fill-opacity="0.6" height="10.0" stroke="yellow" stroke-width="0.1" width="21.32" x="405.33" y="220.0" /><rect fill="yellow" fill-opacity="0.6" height="10.0" stroke="yellow" stroke-width="0.1" width="21.32" x="405.33" y="230.0" /><rect fill="yellow" fill-opacity="0.6" height="10.0" stroke="yellow" stroke-width="0.1" width="21.32" x="405.33" y="240.0" /><rect fill="blue" fill-opacity="0.6" height="40.0" stroke="blue" stroke-width="0.1" width="96.0" x="-48.0" y="-20.0" /><rect fill="blue" fill-opacity="0.6" height="40.0" stroke="blue" stroke-width="0.1" width="96.0" x="464.0" y="-20.0" /><rect fill="blue" fill-opacity="0.6" height="40.0" stroke="blue" stroke-width="0.1" width="96.0" x="-48.0" y="20.0" /><rect fill="blue" fill-opacity="0.6" height="40.0" stroke="blue" stroke-width="0.1" width="96.0" x="464.0" y="20.0" /><rect fill="blue" fill-opacity="0.6" height="40.0" stroke="blue" stroke-width="0.1" width="96.0" x="-48.0" y="60.0" /><rect fill="blue" fill-opacity="0.6" height="40.0" stroke="blue" stroke-width="0.1" width="96.0" x="464.0" y="60.0" /><rect fill="blue" fill-opacity="0.6" height="40.0" stroke="blue" stroke-width="0.1" width="96.0" x="-48.0" y="100.0" /><rect fill="blue" fill-opacity="0.6" height="40.0" stroke="blue" stroke-width="0.1" width="160.0" x="144.0" y="100.0" /><rect fill="blue" fill-opacity="0.6" height="40.0" stroke="blue" stroke-width="0.1" width="96.0" x="464.0" y="100.0" /><rect fill="blue" fill-opacity="0.6" height="40.0" stroke="blue" stroke-width="0.1" width="96.0" x="-48.0" y="140.0" /><rect fill="blue" fill-opacity="0.6" height="40.0" stroke="blue" stroke-width="0.1" width="32.0" x="80.0" y="140.0" /><rect fill="blue" fill-opacity="0.6" height="40.0" stroke="blue" stroke-width="0.1" width="32.0" x="400.0" y="140.0" /><rect fill="blue" fill-opacity="0.6" height="40.0" stroke="blue" stroke-width="0.1" width="96.0" x="464.0" y="140.0" /><rect fill="blue" fill-opacity="0.6" height="40.0" stroke="blue" stroke-width="0.1" width="96.0" x="-48.0" y="180.0" /><rect fill="blue" fill-opacity="0.6" height="40.0" stroke="blue" stroke-width="0.1" width="32.0" x="80.0" y="180.0" /><rect fill="blue" fill-opacity="0.6" height="40.0" stroke="blue" stroke-width="0.1" width="160.0" x="208.0" y="180.0" /><rect fill="blue" fill-opacity="0.6" height="40.0" stroke="blue" stroke-width="0.1" width="32.0" x="400.0" y="180.0" /><rect fill="blue" fill-opacity="0.6" height="40.0" stroke="blue" stroke-width="0.1" width="96.0" x="464.0" y="180.0" /><rect fill="blue" fill-opacity="0.6" height="40.0" stroke="blue" stroke-width="0.1" width="96.0" x="-48.0" y="220.0" /><rect fill="blue" fill-opacity="0.6" height="40.0" stroke="blue" stroke-width="0.1" width="32.0" x="80.0" y="220.0" /><rect fill="blue" fill-opacity="0.6" height="40.0" stroke="blue" stroke-width="0.1" width="32.0" x="400.0" y="220.0" /><rect fill="blue" fill-opacity="0.6" height="40.0" stroke="blue" stroke-width="0.1" width="96.0" x="464.0" y="220.0" /><rect fill="blue" fill-opacity="0.6" height="40.0" stroke="blue" stroke-width="0.1" width="96.0" x="-48.0" y="260.0" /><rect fill="blue" fill-opacity="0.6" height="40.0" stroke="blue" stroke-width="0.1" width="160.0" x="144.0" y="260.0" /><rect fill="blue" fill-opacity="0.6" height="40.0" stroke="blue" stroke-width="0.1" width="96.0" x="464.0" y="260.0" /><rect fill="blue" fill-opacity="0.6" height="40.0" stroke="blue" stroke-width="0.1" width="96.0" x="-48.0" y="300.0" /><rect fill="blue" fill-opacity="0.6" height="40.0" stroke="blue" stroke-width="0.1" width="96.0" x="464.0" y="300.0" /><rect fill="blue" fill-opacity="0.6" height="40.0" stroke="blue" stroke-width="0.1" width="96.0" x="-48.0" y="340.0" /><rect fill="blue" fill-opacity="0.6" height="40.0" stroke="blue" stroke-width="0.1" width="96.0" x="464.0" y="340.0" /><rect fill="blue" fill-opacity="0.6" height="40.0" stroke="blue" stroke-width="0.1" width="96.0" x="-48.0" y="380.0" /><rect fill="blue" fill-opacity="0.6" height="40.0" stroke="blue" stroke-width="0.1" width="96.0" x="464.0" y="380.0" /><rect fill="yellow" fill-opacity="0.6" height="40.0" stroke="yellow" stroke-width="0.1" width="32.0" x="-16.0" y="100.0" /><rect fill="yellow" fill-opacity="0.6" height="40.0" stroke="yellow" stroke-width="0.1" width="32.0" x="496.0" y="100.0" /><rect fill="yellow" fill-opacity="0.6" height="40.0" stroke="yellow" stroke-width="0.1" width="32.0" x="-16.0" y="140.0" /><rect fill="yellow" fill-opacity="0.6" height="40.0" stroke="yellow" stroke-width="0.1" width="32.0" x="496.0" y="140.0" /><rect fill="yellow" fill-opacity="0.6" height="40.0" stroke="yellow" stroke-width="0.1" width="32.0" x="-16.0" y="180.0" /><rect fill="yellow" fill-opacity="0.6" height="40.0" stroke="yellow" stroke-width="0.1" width="32.0" x="496.0" y="180.0" /><rect fill="yellow" fill-opacity="0.6" height="40.0" stroke="yellow" stroke-width="0.1" width="32.0" x="-16.0" y="220.0" /><rect fill="yellow" fill-opacity="0.6" height="40.0" stroke="yellow" stroke-width="0.1" width="32.0" x="496.0" y="220.0" /><rect fill="yellow" fill-opacity="0.6" height="40.0" stroke="yellow" stroke-width="0.1" width="32.0" x="-16.0" y="260.0" /><rect fill="yellow" fill-opacity="0.6" height="40.0" stroke="yellow" stroke-width="0.1" width="32.0" x="496.0" y="260.0" /><rect fill="yellow" fill-opacity="0.6" height="10.0" stroke="yellow" stroke-width="0.1" width="16.0" x="224.0" y="110.0" /><rect fill="yellow" fill-opacity="0.6" height="10.0" stroke="yellow" stroke-width="0.1" width="16.0" x="224.0" y="120.0" /><rect fill="yellow" fill-opacity="0.6" height="10.0" stroke="yellow" stroke-width="0.1" width="32.0" x="240.0" y="110.0" /><rect fill="yellow" fill-opacity="0.6" height="10.0" stroke="yellow" stroke-width="0.1" width="32.0" x="240.0" y="120.0" /><rect fill="yellow" fill-opacity="0.6" height="10.0" stroke="yellow" stroke-width="0.1" width="16.0" x="272.0" y="110.0" /><rect fill="yellow" fill-opacity="0.6" height="10.0" stroke="yellow" stroke-width="0.1" width="16.0" x="272.0" y="120.0" /><rect fill="yellow" fill-opacity="0.6" height="10.0" stroke="yellow" stroke-width="0.1" width="16.0" x="224.0" y="190.0" /><rect fill="yellow" fill-opacity="0.6" height="10.0" stroke="yellow" stroke-width="0.1" width="16.0" x="224.0" y="200.0" /><rect fill="yellow" fill-opacity="0.6" height="10.0" stroke="yellow" stroke-width="0.1" width="32.0" x="240.0" y="190.0" /><rect fill="yellow" fill-opacity="0.6" height="10.0" stroke="yellow" stroke-width="0.1" width="32.0" x="240.0" y="200.0" /><rect fill="yellow" fill-opacity="0.6" height="10.0" stroke="yellow" stroke-width="0.1" width="16.0" x="272.0" y="190.0" /><rect fill="yellow" fill-opacity="0.6" height="10.0" stroke="yellow" stroke-width="0.1" width="16.0" x="272.0" y="200.0" /><rect fill="yellow" fill-opacity="0.6" height="10.0" stroke="yellow" stroke-width="0.1" width="16.0" x="224.0" y="270.0" /><rect fill="yellow" fill-opacity="0.6" height="10.0" stroke="yellow" stroke-width="0.1" width="16.0" x="224.0" y="280.0" /><rect fill="yellow" fill-opacity="0.6" height="10.0" stroke="yellow" stroke-width="0.1" width="32.0" x="240.0" y="270.0" /><rect fill="yellow" fill-opacity="0.6" height="10.0" stroke="yellow" stroke-width="0.1" width="32.0" x="240.0" y="280.0" /><rect fill="yellow" fill-opacity="0.6" height="10.0" stroke="yellow" stroke-width="0.1" width="16.0" x="272.0" y="270.0" /><rect fill="yellow" fill-opacity="0.6" height="10.0" stroke="yellow" stroke-width="0.1" width="16.0" x="272.0" y="280.0" /><rect fill="magenta" fill-opacity="0.6" height="4.0" stroke="magenta" stroke-width="0.1" width="16.0" x="160.0" y="104.0" /><rect fill="magenta" fill-opacity="0.6" height="4.0" stroke="magenta" stroke-width="0.1" width="16.0" x="160.0" y="108.0" /><rect fill="magenta" fill-opacity="0.6" height="4.0" stroke="magenta" stroke-width="0.1" width="16.0" x="160.0" y="112.0" /><rect fill="magenta" fill-opacity="0.6" height="4.0" stroke="magenta" stroke-width="0.1" width="16.0" x="160.0" y="116.0" /><rect fill="magenta" fill-opacity="0.6" height="4.0" stroke="magenta" stroke-width="0.1" width="16.0" x="160.0" y="120.0" /><rect fill="magenta" fill-opacity="0.6" height="4.0" stroke="magenta" stroke-width="0.1" width="16.0" x="160.0" y="124.0" /><rect fill="magenta" fill-opacity="0.6" height="4.0" stroke="magenta" stroke-width="0.1" width="16.0" x="160.0" y="128.0" /><rect fill="magenta" fill-opacity="0.6" height="4.0" stroke="magenta" stroke-width="0.1" width="16.0" x="160.0" y="132.0" /><rect fill="magenta" fill-opacity="0.6" height="4.0" stroke="magenta" stroke-width="0.1" width="32.0" x="176.0" y="104.0" /><rect fill="magenta" fill-opacity="0.6" height="4.0" stroke="magenta" stroke-width="0.1" width="32.0" x="176.0" y="108.0" /><rect fill="magenta" fill-opacity="0.6" height="4.0" stroke="magenta" stroke-width="0.1" width="32.0" x="176.0" y="112.0" /><rect fill="magenta" fill-opacity="0.6" height="4.0" stroke="magenta" stroke-width="0.1" width="32.0" x="176.0" y="116.0" /><rect fill="magenta" fill-opacity="0.6" height="4.0" stroke="magenta" stroke-width="0.1" width="32.0" x="176.0" y="120.0" /><rect fill="magenta" fill-opacity="0.6" height="4.0" stroke="magenta" stroke-width="0.1" width="32.0" x="176.0" y="124.0" /><rect fill="magenta" fill-opacity="0.6" height="4.0" stroke="magenta" stroke-width="0.1" width="32.0" x="176.0" y="128.0" /><rect fill="magenta" fill-opacity="0.6" height="4.0" stroke="magenta" stroke-width="0.1" width="32.0" x="176.0" y="132.0" /><rect fill="magenta" fill-opacity="0.6" height="4.0" stroke="magenta" stroke-width="0.1" width="16.0" x="208.0" y="104.0" /><rect fill="magenta" fill-opacity="0.6" height="4.0" stroke="magenta" stroke-width="0.1" width="16.0" x="208.0" y="108.0" /><rect fill="magenta" fill-opacity="0.6" height="4.0" stroke="magenta" stroke-width="0.1" width="16.0" x="208.0" y="112.0" /><rect fill="magenta" fill-opacity="0.6" height="4.0" stroke="magenta" stroke-width="0.1" width="16.0" x="208.0" y="116.0" /><rect fill="magenta" fill-opacity="0.6" height="4.0" stroke="magenta" stroke-width="0.1" width="16.0" x="208.0" y="120.0" /><rect fill="magenta" fill-opacity="0.6" height="4.0" stroke="magenta" stroke-width="0.1" width="16.0" x="208.0" y="124.0" /><rect fill="magenta" fill-opacity="0.6" height="4.0" stroke="magenta" stroke-width="0.1" width="16.0" x="208.0" y="128.0" /><rect fill="magenta" fill-opacity="0.6" height="4.0" stroke="magenta" stroke-width="0.1" width="16.0" x="208.0" y="132.0" /><rect fill="magenta" fill-opacity="0.6" height="10.0" stroke="magenta" stroke-width="0.1" width="21.32" x="85.33" y="150.0" /><rect fill="magenta" fill-opacity="0.6" height="10.0" stroke="magenta" stroke-width="0.1" width="21.32" x="85.33" y="160.0" /><rect fill="magenta" fill-opacity="0.6" height="10.0" stroke="magenta" stroke-width="0.1" width="21.32" x="85.33" y="170.0" /><rect fill="magenta" fill-opacity="0.6" height="10.0" stroke="magenta" stroke-width="0.1" width="21.32" x="85.33" y="180.0" /><rect fill="magenta" fill-opacity="0.6" height="10.0" stroke="magenta" stroke-width="0.1" width="21.32" x="85.33" y="190.0" /><rect fill="magenta" fill-opacity="0.6" height="10.0" stroke="magenta" stroke-width="0.1" width="21.32" x="85.33" y="200.0" /><rect fill="magenta" fill-opacity="0.6" height="10.0" stroke="magenta" stroke-width="0.1" width="21.32" x="85.33" y="210.0" /><rect fill="magenta" fill-opacity="0.6" height="4.0" stroke="magenta" stroke-width="0.1" width="16.0" x="288.0" y="184.0" /><rect fill="magenta" fill-opacity="0.6" height="4.0" stroke="magenta" stroke-width="0.1" width="16.0" x="288.0" y="188.0" /><rect fill="magenta" fill-opacity="0.6" height="4.0" stroke="magenta" stroke-width="0.1" width="16.0" x="288.0" y="192.0" /><rect fill="magenta" fill-opacity="0.6" height="4.0" stroke="magenta" stroke-width="0.1" width="16.0" x="288.0" y="196.0" /><rect fill="magenta" fill-opacity="0.6" height="4.0" stroke="magenta" stroke-width="0.1" width="16.0" x="288.0" y="200.0" /><rect fill="magenta" fill-opacity="0.6" height="4.0" stroke="magenta" stroke-width="0.1" width="16.0" x="288.0" y="204.0" /><rect fill="magenta" fill-opacity="0.6" height="4.0" stroke="magenta" stroke-width="0.1" width="16.0" x="288.0" y="208.0" /><rect fill="magenta" fill-opacity="0.6" height="4.0" stroke="magenta" stroke-width="0.1" width="16.0" x="288.0" y="212.0" /><rect fill="magenta" fill-opacity="0.6" height="4.0" stroke="magenta" stroke-width="0.1" width="32.0" x="304.0" y="184.0" /><rect fill="magenta" fill-opacity="0.6" height="4.0" stroke="magenta" stroke-width="0.1" width="32.0" x="304.0" y="188.0" /><rect fill="magenta" fill-opacity="0.6" height="4.0" stroke="magenta" stroke-width="0.1" width="32.0" x="304.0" y="192.0" /><rect fill="magenta" fill-opacity="0.6" height="4.0" stroke="magenta" stroke-width="0.1" width="32.0" x="304.0" y="196.0" /><rect fill="magenta" fill-opacity="0.6" height="4.0" stroke="magenta" stroke-width="0.1" width="32.0" x="304.0" y="200.0" /><rect fill="magenta" fill-opacity="0.6" height="4.0" stroke="magenta" stroke-width="0.1" width="32.0" x="304.0" y="204.0" /><rect fill="magenta" fill-opacity="0.6" height="4.0" stroke="magenta" stroke-width="0.1" width="32.0" x="304.0" y="208.0" /><rect fill="magenta" fill-opacity="0.6" height="4.0" stroke="magenta" stroke-width="0.1" width="32.0" x="304.0" y="212.0" /><rect fill="magenta" fill-opacity="0.6" height="4.0" stroke="magenta" stroke-width="0.1" width="16.0" x="336.0" y="184.0" /><rect fill="magenta" fill-opacity="0.6" height="4.0" stroke="magenta" stroke-width="0.1" width="16.0" x="336.0" y="188.0" /><rect fill="magenta" fill-opacity="0.6" height="4.0" stroke="magenta" stroke-width="0.1" width="16.0" x="336.0" y="192.0" /><rect fill="magenta" fill-opacity="0.6" height="4.0" stroke="magenta" stroke-width="0.1" width="16.0" x="336.0" y="196.0" /><rect fill="magenta" fill-opacity="0.6" height="4.0" stroke="magenta" stroke-width="0.1" width="16.0" x="336.0" y="200.0" /><rect fill="magenta" fill-opacity="0.6" height="4.0" stroke="magenta" stroke-width="0.1" width="16.0" x="336.0" y="204.0" /><rect fill="magenta" fill-opacity="0.6" height="4.0" stroke="magenta" stroke-width="0.1" width="16.0" x="336.0" y="208.0" /><rect fill="magenta" fill-opacity="0.6" height="4.0" stroke="magenta" stroke-width="0.1" width="16.0" x="336.0" y="212.0" /><rect fill="magenta" fill-opacity="0.6" height="10.0" stroke="magenta" stroke-width="0.1" width="21.32" x="85.33" y="220.0" /><rect fill="magenta" fill-opacity="0.6" height="10.0" stroke="magenta" stroke-width="0.1" width="21.32" x="85.33" y="230.0" /><rect fill="magenta" fill-opacity="0.6" height="10.0" stroke="magenta" stroke-width="0.1" width="21.32" x="85.33" y="240.0" /><rect fill="magenta" fill-opacity="0.6" height="4.0" stroke="magenta" stroke-width="0.1" width="16.0" x="160.0" y="264.0" /><rect fill="magenta" fill-opacity="0.6" height="4.0" stroke="magenta" stroke-width="0.1" width="16.0" x="160.0" y="268.0" /><rect fill="magenta" fill-opacity="0.6" height="4.0" stroke="magenta" stroke-width="0.1" width="16.0" x="160.0" y="272.0" /><rect fill="magenta" fill-opacity="0.6" height="4.0" stroke="magenta" stroke-width="0.1" width="16.0" x="160.0" y="276.0" /><rect fill="magenta" fill-opacity="0.6" height="4.0" stroke="magenta" stroke-width="0.1" width="16.0" x="160.0" y="280.0" /><rect fill="magenta" fill-opacity="0.6" height="4.0" stroke="magenta" stroke-width="0.1" width="16.0" x="160.0" y="284.0" /><rect fill="magenta" fill-opacity="0.6" height="4.0" stroke="magenta" stroke-width="0.1" width="16.0" x="160.0" y="288.0" /><rect fill="magenta" fill-opacity="0.6" height="4.0" stroke="magenta" stroke-width="0.1" width="16.0" x="160.0" y="292.0" /><rect fill="magenta" fill-opacity="0.6" height="4.0" stroke="magenta" stroke-width="0.1" width="32.0" x="176.0" y="264.0" /><rect fill="magenta" fill-opacity="0.6" height="4.0" stroke="magenta" stroke-width="0.1" width="32.0" x="176.0" y="268.0" /><rect fill="magenta" fill-opacity="0.6" height="4.0" stroke="magenta" stroke-width="0.1" width="32.0" x="176.0" y="272.0" /><rect fill="magenta" fill-opacity="0.6" height="4.0" stroke="magenta" stroke-width="0.1" width="32.0" x="176.0" y="276.0" /><rect fill="magenta" fill-opacity="0.6" height="4.0" stroke="magenta" stroke-width="0.1" width="32.0" x="176.0" y="280.0" /><rect fill="magenta" fill-opacity="0.6" height="4.0" stroke="magenta" stroke-width="0.1" width="32.0" x="176.0" y="284.0" /><rect fill="magenta" fill-opacity="0.6" height="4.0" stroke="magenta" stroke-width="0.1" width="32.0" x="176.0" y="288.0" /><rect fill="magenta" fill-opacity="0.6" height="4.0" stroke="magenta" stroke-width="0.1" width="32.0" x="176.0" y="292.0" /><rect fill="magenta" fill-opacity="0.6" height="4.0" stroke="magenta" stroke-width="0.1" width="16.0" x="208.0" y="264.0" /><rect fill="magenta" fill-opacity="0.6" height="4.0" stroke="magenta" stroke-width="0.1" width="16.0" x="208.0" y="268.0" /><rect fill="magenta" fill-opacity="0.6" height="4.0" stroke="magenta" stroke-width="0.1" width="16.0" x="208.0" y="272.0" /><rect fill="magenta" fill-opacity="0.6" height="4.0" stroke="magenta" stroke-width="0.1" width="16.0" x="208.0" y="276.0" /><rect fill="magenta" fill-opacity="0.6" height="4.0" stroke="magenta" stroke-width="0.1" width="16.0" x="208.0" y="280.0" /><rect fill="magenta" fill-opacity="0.6" height="4.0" stroke="magenta" stroke-width="0.1" width="16.0" x="208.0" y="284.0" /><rect fill="magenta" fill-opacity="0.6" height="4.0" stroke="magenta" stroke-width="0.1" width="16.0" x="208.0" y="288.0" /><rect fill="magenta" fill-opacity="0.6" height="4.0" stroke="magenta" stroke-width="0.1" width="16.0" x="208.0" y="292.0" /><rect fill="goldenrod" fill-opacity="0.6" height="40.0" stroke="goldenrod" stroke-width="0.1" width="32.0" x="80.0" y="20.0" /><rect fill="goldenrod" fill-opacity="0.6" height="40.0" stroke="goldenrod" stroke-width="0.1" width="96.0" x="144.0" y="20.0" /><rect fill="goldenrod" fill-opacity="0.6" height="40.0" stroke="goldenrod" stroke-width="0.1" width="96.0" x="272.0" y="20.0" /><rect fill="goldenrod" fill-opacity="0.6" height="40.0" stroke="goldenrod" stroke-width="0.1" width="32.0" x="80.0" y="60.0" /><rect fill="goldenrod" fill-opacity="0.6" height="40.0" stroke="goldenrod" stroke-width="0.1" width="96.0" x="144.0" y="60.0" /><rect fill="goldenrod" fill-opacity="0.6" height="40.0" stroke="goldenrod" stroke-width="0.1" width="96.0" x="272.0" y="60.0" /><rect fill="goldenrod" fill-opacity="0.6" height="40.0" stroke="goldenrod" stroke-width="0.1" width="32.0" x="80.0" y="100.0" /><rect fill="goldenrod" fill-opacity="0.6" height="40.0" stroke="goldenrod" stroke-width="0.1" width="96.0" x="144.0" y="100.0" /><rect fill="goldenrod" fill-opacity="0.6" height="40.0" stroke="goldenrod" stroke-width="0.1" width="96.0" x="272.0" y="100.0" /><rect fill="goldenrod" fill-opacity="0.6" height="40.0" stroke="goldenrod" stroke-width="0.1" width="32.0" x="80.0" y="140.0" /><rect fill="goldenrod" fill-opacity="0.6" height="40.0" stroke="goldenrod" stroke-width="0.1" width="96.0" x="144.0" y="140.0" /><rect fill="goldenrod" fill-opacity="0.6" height="40.0" stroke="goldenrod" stroke-width="0.1" width="96.0" x="272.0" y="140.0" /><rect fill="goldenrod" fill-opacity="0.6" height="40.0" stroke="goldenrod" stroke-width="0.1" width="32.0" x="80.0" y="180.0" /><rect fill="goldenrod" fill-opacity="0.6" height="40.0" stroke="goldenrod" stroke-width="0.1" width="96.0" x="144.0" y="180.0" /><rect fill="goldenrod" fill-opacity="0.6" height="40.0" stroke="goldenrod" stroke-width="0.1" width="96.0" x="272.0" y="180.0" /><rect fill="goldenrod" fill-opacity="0.6" height="40.0" stroke="goldenrod" stroke-width="0.1" width="32.0" x="80.0" y="220.0" /><rect fill="goldenrod" fill-opacity="0.6" height="40.0" stroke="goldenrod" stroke-width="0.1" width="96.0" x="144.0" y="220.0" /><rect fill="goldenrod" fill-opacity="0.6" height="40.0" stroke="goldenrod" stroke-width="0.1" width="96.0" x="272.0" y="220.0" /><rect fill="goldenrod" fill-opacity="0.6" height="40.0" stroke="goldenrod" stroke-width="0.1" width="32.0" x="80.0" y="260.0" /><rect fill="goldenrod" fill-opacity="0.6" height="40.0" stroke="goldenrod" stroke-width="0.1" width="96.0" x="144.0" y="260.0" /><rect fill="goldenrod" fill-opacity="0.6" height="40.0" stroke="goldenrod" stroke-width="0.1" width="96.0" x="272.0" y="260.0" /><rect fill="goldenrod" fill-opacity="0.6" height="40.0" stroke="goldenrod" stroke-width="0.1" width="32.0" x="80.0" y="300.0" /><rect fill="goldenrod" fill-opacity="0.6" height="40.0" stroke="goldenrod" stroke-width="0.1" width="96.0" x="144.0" y="300.0" /><rect fill="goldenrod" fill-opacity="0.6" height="40.0" stroke="goldenrod" stroke-width="0.1" width="96.0" x="272.0" y="300.0" /><rect fill="goldenrod" fill-opacity="0.6" height="40.0" stroke="goldenrod" stroke-width="0.1" width="32.0" x="80.0" y="340.0" /><rect fill="goldenrod" fill-opacity="0.6" height="40.0" stroke="goldenrod" stroke-width="0.1" width="96.0" x="144.0" y="340.0" /><rect fill="goldenrod" fill-opacity="0.6" height="40.0" stroke="goldenrod" stroke-width="0.1" width="96.0" x="272.0" y="340.0" /></g></g></svg>