<?xml version="1.0" encoding="UTF-8"?>
<svg xmlns="http://www.w3.org/2000/svg" xmlns:xlink="http://www.w3.org/1999/xlink" width="1138.5" height="778.5" viewBox="-51.75 -726.75 1138.5 778.5">
<defs>
<style type="text/css">
.l235d4 {stroke: #0067A5; fill: #0067A5; fill-opacity: 0.5;}
.l71d20 {stroke: #B3446C; fill: #B3446C; fill-opacity: 0.5;}
</style>
</defs>
<rect x="-51.75" y="-726.75" width="1138.5" height="778.5" fill="#222222" stroke="none"/>
<g id="my_logo" transform="scale(1 -1)">
<polygon id="0x266e210" class="l71d20" points="15.75,85 15.75,93.5 24.25,93.5 24.25,85 35,85 35,95.75 26.5,95.75 26.5,104.25 35,104.25 35,115 24.25,115 24.25,106.5 15.75,106.5 15.75,115 5,115 5,104.25 13.5,104.25 13.5,95.75 5,95.75 5,85"/>
<polygon id="0x283e580" class="l71d20" points="15.75,205 15.75,213.5 24.25,213.5 24.25,205 35,205 35,215.75 26.5,215.75 26.5,224.25 35,224.25 35,235 24.25,235 24.25,226.5 15.75,226.5 15.75,235 5,235 5,224.25 13.5,224.25 13.5,215.75 5,215.75 5,205"/>
<polygon id="0x283e690" class="l71d20" points="55.75,5 55.75,13.5 64.25,13.5 64.25,5 75,5 75,15.75 66.5,15.75 66.5,24.25 75,24.25 75,35 64.25,35 64.25,26.5 55.75,26.5 55.75,35 45,35 45,24.25 53.5,24.25 53.5,15.75 45,15.75 45,5"/>
<polygon id="0x283e700" class="l71d20" points="55.75,45 55.75,53.5 64.25,53.5 64.25,45 75,45 75,55.75 66.5,55.75 66.5,64.25 75,64.25 75,75 64.25,75 64.25,66.5 55.75,66.5 55.75,75 45,75 45,64.25 53.5,64.25 53.5,55.75 45,55.75 45,45"/>
<polygon id="0x283e770" class="l71d20" points="55.75,85 55.75,93.5 64.25,93.5 64.25,85 75,85 75,95.75 66.5,95.75 66.5,104.25 75,104.25 75,115 64.25,115 64.25,106.5 55.75,106.5 55.75,115 45,115 45,104.25 53.5,104.25 53.5,95.75 45,95.75 45,85"/>
<polygon id="0x283e7e0" class="l71d20" points="55.75,125 55.75,133.5 64.25,133.5 64.25,125 75,125 75,135.75 66.5,135.75 66.5,144.25 75,144.25 75,155 64.25,155 64.25,146.5 55.75,146.5 55.75,155 45,155 45,144.25 53.5,144.25 53.5,135.75 45,135.75 45,125"/>
<polygon id="0x283e8a0" class="l71d20" points="55.75,165 55.75,173.5 64.25,173.5 64.25,165 75,165 75,175.75 66.5,175.75 66.5,184.25 75,184.25 75,195 64.25,195 64.25,186.5 55.75,186.5 55.75,195 45,195 45,184.25 53.5,184.25 53.5,175.75 45,175.75 45,165"/>
<polygon id="0x283e910" class="l71d20" points="55.75,205 55.75,213.5 64.25,213.5 64.25,205 75,205 75,215.75 66.5,215.75 66.5,224.25 75,224.25 75,235 64.25,235 64.25,226.5 55.75,226.5 55.75,235 45,235 45,224.25 53.5,224.25 53.5,215.75 45,215.75 45,205"/>
<polygon id="0x283e980" class="l71d20" points="55.75,245 55.75,253.5 64.25,253.5 64.25,245 75,245 75,255.75 66.5,255.75 66.5,264.25 75,264.25 75,275 64.25,275 64.25,266.5 55.75,266.5 55.75,275 45,275 45,264.25 53.5,264.25 53.5,255.75 45,255.75 45,245"/>
<polygon id="0x283e9f0" class="l71d20" points="55.75,285 55.75,293.5 64.25,293.5 64.25,285 75,285 75,295.75 66.5,295.75 66.5,304.25 75,304.25 75,315 64.25,315 64.25,306.5 55.75,306.5 55.75,315 45,315 45,304.25 53.5,304.25 53.5,295.75 45,295.75 45,285"/>
<polygon id="0x283ea60" class="l71d20" points="95.75,125 95.75,133.5 104.25,133.5 104.25,125 115,125 115,135.75 106.5,135.75 106.5,144.25 115,144.25 115,155 104.25,155 104.25,146.5 95.75,146.5 95.75,155 85,155 85,144.25 93.5,144.25 93.5,135.75 85,135.75 85,125"/>
<polygon id="0x283ead0" class="l71d20" points="95.75,165 95.75,173.5 104.25,173.5 104.25,165 115,165 115,175.75 106.5,175.75 106.5,184.25 115,184.25 115,195 104.25,195 104.25,186.5 95.75,186.5 95.75,195 85,195 85,184.25 93.5,184.25 93.5,175.75 85,175.75 85,165"/>
<polygon id="0x283ec90" class="l71d20" points="135.75,45 135.75,53.5 144.25,53.5 144.25,45 155,45 155,55.75 146.5,55.75 146.5,64.25 155,64.25 155,75 144.25,75 144.25,66.5 135.75,66.5 135.75,75 125,75 125,64.25 133.5,64.25 133.5,55.75 125,55.75 125,45"/>
<polygon id="0x283ee50" class="l71d20" points="135.75,85 135.75,93.5 144.25,93.5 144.25,85 155,85 155,95.75 146.5,95.75 146.5,104.25 155,104.25 155,115 144.25,115 144.25,106.5 135.75,106.5 135.75,115 125,115 125,104.25 133.5,104.25 133.5,95.75 125,95.75 125,85"/>
<polygon id="0x283f010" class="l71d20" points="135.75,125 135.75,133.5 144.25,133.5 144.25,125 155,125 155,135.75 146.5,135.75 146.5,144.25 155,144.25 155,155 144.25,155 144.25,146.5 135.75,146.5 135.75,155 125,155 125,144.25 133.5,144.25 133.5,135.75 125,135.75 125,125"/>
<polygon id="0x283f1d0" class="l71d20" points="135.75,165 135.75,173.5 144.25,173.5 144.25,165 155,165 155,175.75 146.5,175.75 146.5,184.25 155,184.25 155,195 144.25,195 144.25,186.5 135.75,186.5 135.75,195 125,195 125,184.25 133.5,184.25 133.5,175.75 125,175.75 125,165"/>
<polygon id="0x283f390" class="l71d20" points="135.75,205 135.75,213.5 144.25,213.5 144.25,205 155,205 155,215.75 146.5,215.75 146.5,224.25 155,224.25 155,235 144.25,235 144.25,226.5 135.75,226.5 135.75,235 125,235 125,224.25 133.5,224.25 133.5,215.75 125,215.75 125,205"/>
<polygon id="0x283f550" class="l71d20" points="135.75,245 135.75,253.5 144.25,253.5 144.25,245 155,245 155,255.75 146.5,255.75 146.5,264.25 155,264.25 155,275 144.25,275 144.25,266.5 135.75,266.5 135.75,275 125,275 125,264.25 133.5,264.25 133.5,255.75 125,255.75 125,245"/>
<polygon id="0x283f710" class="l71d20" points="175.75,45 175.75,53.5 184.25,53.5 184.25,45 195,45 195,55.75 186.5,55.75 186.5,64.25 195,64.25 195,75 184.25,75 184.25,66.5 175.75,66.5 175.75,75 165,75 165,64.25 173.5,64.25 173.5,55.75 165,55.75 165,45"/>
<polygon id="0x283f8d0" class="l71d20" points="175.75,85 175.75,93.5 184.25,93.5 184.25,85 195,85 195,95.75 186.5,95.75 186.5,104.25 195,104.25 195,115 184.25,115 184.25,106.5 175.75,106.5 175.75,115 165,115 165,104.25 173.5,104.25 173.5,95.75 165,95.75 165,85"/>
<polygon id="0x283fa90" class="l71d20" points="175.75,125 175.75,133.5 184.25,133.5 184.25,125 195,125 195,135.75 186.5,135.75 186.5,144.25 195,144.25 195,155 184.25,155 184.25,146.5 175.75,146.5 175.75,155 165,155 165,144.25 173.5,144.25 173.5,135.75 165,135.75 165,125"/>
<polygon id="0x283fc50" class="l71d20" points="175.75,165 175.75,173.5 184.25,173.5 184.25,165 195,165 195,175.75 186.5,175.75 186.5,184.25 195,184.25 195,195 184.25,195 184.25,186.5 175.75,186.5 175.75,195 165,195 165,184.25 173.5,184.25 173.5,175.75 165,175.75 165,165"/>
<polygon id="0x283fe10" class="l71d20" points="175.75,205 175.75,213.5 184.25,213.5 184.25,205 195,205 195,215.75 186.5,215.75 186.5,224.25 195,224.25 195,235 184.25,235 184.25,226.5 175.75,226.5 175.75,235 165,235 165,224.25 173.5,224.25 173.5,215.75 165,215.75 165,205"/>
<polygon id="0x283ffd0" class="l71d20" points="175.75,245 175.75,253.5 184.25,253.5 184.25,245 195,245 195,255.75 186.5,255.75 186.5,264.25 195,264.25 195,275 184.25,275 184.25,266.5 175.75,266.5 175.75,275 165,275 165,264.25 173.5,264.25 173.5,255.75 165,255.75 165,245"/>
<polygon id="0x2840190" class="l71d20" points="215.75,125 215.75,133.5 224.25,133.5 224.25,125 235,125 235,135.75 226.5,135.75 226.5,144.25 235,144.25 235,155 224.25,155 224.25,146.5 215.75,146.5 215.75,155 205,155 205,144.25 213.5,144.25 213.5,135.75 205,135.75 205,125"/>
<polygon id="0x2840350" class="l71d20" points="215.75,165 215.75,173.5 224.25,173.5 224.25,165 235,165 235,175.75 226.5,175.75 226.5,184.25 235,184.25 235,195 224.25,195 224.25,186.5 215.75,186.5 215.75,195 205,195 205,184.25 213.5,184.25 213.5,175.75 205,175.75 205,165"/>
<polygon id="0x2840510" class="l71d20" points="255.75,5 255.75,13.5 264.25,13.5 264.25,5 275,5 275,15.75 266.5,15.75 266.5,24.25 275,24.25 275,35 264.25,35 264.25,26.5 255.75,26.5 255.75,35 245,35 245,24.25 253.5,24.25 253.5,15.75 245,15.75 245,5"/>
<polygon id="0x28406d0" class="l71d20" points="255.75,45 255.75,53.5 264.25,53.5 264.25,45 275,45 275,55.75 266.5,55.75 266.5,64.25 275,64.25 275,75 264.25,75 264.25,66.5 255.75,66.5 255.75,75 245,75 245,64.25 253.5,64.25 253.5,55.75 245,55.75 245,45"/>
<polygon id="0x2840890" class="l71d20" points="255.75,85 255.75,93.5 264.25,93.5 264.25,85 275,85 275,95.75 266.5,95.75 266.5,104.25 275,104.25 275,115 264.25,115 264.25,106.5 255.75,106.5 255.75,115 245,115 245,104.25 253.5,104.25 253.5,95.75 245,95.75 245,85"/>
<polygon id="0x2840a50" class="l71d20" points="255.75,125 255.75,133.5 264.25,133.5 264.25,125 275,125 275,135.75 266.5,135.75 266.5,144.25 275,144.25 275,155 264.25,155 264.25,146.5 255.75,146.5 255.75,155 245,155 245,144.25 253.5,144.25 253.5,135.75 245,135.75 245,125"/>
<polygon id="0x2840c10" class="l71d20" points="255.75,165 255.75,173.5 264.25,173.5 264.25,165 275,165 275,175.75 266.5,175.75 266.5,184.25 275,184.25 275,195 264.25,195 264.25,186.5 255.75,186.5 255.75,195 245,195 245,184.25 253.5,184.25 253.5,175.75 245,175.75 245,165"/>
<polygon id="0x2840dd0" class="l71d20" points="255.75,205 255.75,213.5 264.25,213.5 264.25,205 275,205 275,215.75 266.5,215.75 266.5,224.25 275,224.25 275,235 264.25,235 264.25,226.5 255.75,226.5 255.75,235 245,235 245,224.25 253.5,224.25 253.5,215.75 245,215.75 245,205"/>
<polygon id="0x2840f90" class="l71d20" points="255.75,245 255.75,253.5 264.25,253.5 264.25,245 275,245 275,255.75 266.5,255.75 266.5,264.25 275,264.25 275,275 264.25,275 264.25,266.5 255.75,266.5 255.75,275 245,275 245,264.25 253.5,264.25 253.5,255.75 245,255.75 245,245"/>
<polygon id="0x2841150" class="l71d20" points="255.75,285 255.75,293.5 264.25,293.5 264.25,285 275,285 275,295.75 266.5,295.75 266.5,304.25 275,304.25 275,315 264.25,315 264.25,306.5 255.75,306.5 255.75,315 245,315 245,304.25 253.5,304.25 253.5,295.75 245,295.75 245,285"/>
<polygon id="0x2841310" class="l71d20" points="295.75,85 295.75,93.5 304.25,93.5 304.25,85 315,85 315,95.75 306.5,95.75 306.5,104.25 315,104.25 315,115 304.25,115 304.25,106.5 295.75,106.5 295.75,115 285,115 285,104.25 293.5,104.25 293.5,95.75 285,95.75 285,85"/>
<polygon id="0x28414d0" class="l71d20" points="295.75,205 295.75,213.5 304.25,213.5 304.25,205 315,205 315,215.75 306.5,215.75 306.5,224.25 315,224.25 315,235 304.25,235 304.25,226.5 295.75,226.5 295.75,235 285,235 285,224.25 293.5,224.25 293.5,215.75 285,215.75 285,205"/>
<polygon id="0x2841690" class="l71d20" points="15.75,365 15.75,373.5 24.25,373.5 24.25,365 35,365 35,375.75 26.5,375.75 26.5,384.25 35,384.25 35,395 24.25,395 24.25,386.5 15.75,386.5 15.75,395 5,395 5,384.25 13.5,384.25 13.5,375.75 5,375.75 5,365"/>
<polygon id="0x2841850" class="l71d20" points="15.75,405 15.75,413.5 24.25,413.5 24.25,405 35,405 35,415.75 26.5,415.75 26.5,424.25 35,424.25 35,435 24.25,435 24.25,426.5 15.75,426.5 15.75,435 5,435 5,424.25 13.5,424.25 13.5,415.75 5,415.75 5,405"/>
<polygon id="0x2841a10" class="l71d20" points="15.75,605 15.75,613.5 24.25,613.5 24.25,605 35,605 35,615.75 26.5,615.75 26.5,624.25 35,624.25 35,635 24.25,635 24.25,626.5 15.75,626.5 15.75,635 5,635 5,624.25 13.5,624.25 13.5,615.75 5,615.75 5,605"/>
<polygon id="0x2841bd0" class="l71d20" points="15.75,645 15.75,653.5 24.25,653.5 24.25,645 35,645 35,655.75 26.5,655.75 26.5,664.25 35,664.25 35,675 24.25,675 24.25,666.5 15.75,666.5 15.75,675 5,675 5,664.25 13.5,664.25 13.5,655.75 5,655.75 5,645"/>
<polygon id="0x2841d90" class="l71d20" points="55.75,405 55.75,413.5 64.25,413.5 64.25,405 75,405 75,415.75 66.5,415.75 66.5,424.25 75,424.25 75,435 64.25,435 64.25,426.5 55.75,426.5 55.75,435 45,435 45,424.25 53.5,424.25 53.5,415.75 45,415.75 45,405"/>
<polygon id="0x2841f50" class="l71d20" points="55.75,605 55.75,613.5 64.25,613.5 64.25,605 75,605 75,615.75 66.5,615.75 66.5,624.25 75,624.25 75,635 64.25,635 64.25,626.5 55.75,626.5 55.75,635 45,635 45,624.25 53.5,624.25 53.5,615.75 45,615.75 45,605"/>
<polygon id="0x2842110" class="l71d20" points="95.75,365 95.75,373.5 104.25,373.5 104.25,365 115,365 115,375.75 106.5,375.75 106.5,384.25 115,384.25 115,395 104.25,395 104.25,386.5 95.75,386.5 95.75,395 85,395 85,384.25 93.5,384.25 93.5,375.75 85,375.75 85,365"/>
<polygon id="0x28422d0" class="l71d20" points="95.75,445 95.75,453.5 104.25,453.5 104.25,445 115,445 115,455.75 106.5,455.75 106.5,464.25 115,464.25 115,475 104.25,475 104.25,466.5 95.75,466.5 95.75,475 85,475 85,464.25 93.5,464.25 93.5,455.75 85,455.75 85,445"/>
<polygon id="0x2842490" class="l71d20" points="95.75,565 95.75,573.5 104.25,573.5 104.25,565 115,565 115,575.75 106.5,575.75 106.5,584.25 115,584.25 115,595 104.25,595 104.25,586.5 95.75,586.5 95.75,595 85,595 85,584.25 93.5,584.25 93.5,575.75 85,575.75 85,565"/>
<polygon id="0x2842650" class="l71d20" points="95.75,645 95.75,653.5 104.25,653.5 104.25,645 115,645 115,655.75 106.5,655.75 106.5,664.25 115,664.25 115,675 104.25,675 104.25,666.5 95.75,666.5 95.75,675 85,675 85,664.25 93.5,664.25 93.5,655.75 85,655.75 85,645"/>
<polygon id="0x2842810" class="l71d20" points="135.75,405 135.75,413.5 144.25,413.5 144.25,405 155,405 155,415.75 146.5,415.75 146.5,424.25 155,424.25 155,435 144.25,435 144.25,426.5 135.75,426.5 135.75,435 125,435 125,424.25 133.5,424.25 133.5,415.75 125,415.75 125,405"/>
<polygon id="0x28429d0" class="l71d20" points="135.75,445 135.75,453.5 144.25,453.5 144.25,445 155,445 155,455.75 146.5,455.75 146.5,464.25 155,464.25 155,475 144.25,475 144.25,466.5 135.75,466.5 135.75,475 125,475 125,464.25 133.5,464.25 133.5,455.75 125,455.75 125,445"/>
<polygon id="0x2842b90" class="l71d20" points="135.75,485 135.75,493.5 144.25,493.5 144.25,485 155,485 155,495.75 146.5,495.75 146.5,504.25 155,504.25 155,515 144.25,515 144.25,506.5 135.75,506.5 135.75,515 125,515 125,504.25 133.5,504.25 133.5,495.75 125,495.75 125,485"/>
<polygon id="0x2842d50" class="l71d20" points="135.75,525 135.75,533.5 144.25,533.5 144.25,525 155,525 155,535.75 146.5,535.75 146.5,544.25 155,544.25 155,555 144.25,555 144.25,546.5 135.75,546.5 135.75,555 125,555 125,544.25 133.5,544.25 133.5,535.75 125,535.75 125,525"/>
<polygon id="0x2842f10" class="l71d20" points="135.75,565 135.75,573.5 144.25,573.5 144.25,565 155,565 155,575.75 146.5,575.75 146.5,584.25 155,584.25 155,595 144.25,595 144.25,586.5 135.75,586.5 135.75,595 125,595 125,584.25 133.5,584.25 133.5,575.75 125,575.75 125,565"/>
<polygon id="0x28430d0" class="l71d20" points="135.75,605 135.75,613.5 144.25,613.5 144.25,605 155,605 155,615.75 146.5,615.75 146.5,624.25 155,624.25 155,635 144.25,635 144.25,626.5 135.75,626.5 135.75,635 125,635 125,624.25 133.5,624.25 133.5,615.75 125,615.75 125,605"/>
<polygon id="0x2843290" class="l71d20" points="175.75,405 175.75,413.5 184.25,413.5 184.25,405 195,405 195,415.75 186.5,415.75 186.5,424.25 195,424.25 195,435 184.25,435 184.25,426.5 175.75,426.5 175.75,435 165,435 165,424.25 173.5,424.25 173.5,415.75 165,415.75 165,405"/>
<polygon id="0x2843450" class="l71d20" points="175.75,445 175.75,453.5 184.25,453.5 184.25,445 195,445 195,455.75 186.5,455.75 186.5,464.25 195,464.25 195,475 184.25,475 184.25,466.5 175.75,466.5 175.75,475 165,475 165,464.25 173.5,464.25 173.5,455.75 165,455.75 165,445"/>
<polygon id="0x2843610" class="l71d20" points="175.75,485 175.75,493.5 184.25,493.5 184.25,485 195,485 195,495.75 186.5,495.75 186.5,504.25 195,504.25 195,515 184.25,515 184.25,506.5 175.75,506.5 175.75,515 165,515 165,504.25 173.5,504.25 173.5,495.75 165,495.75 165,485"/>
<polygon id="0x28437d0" class="l71d20" points="175.75,525 175.75,533.5 184.25,533.5 184.25,525 195,525 195,535.75 186.5,535.75 186.5,544.25 195,544.25 195,555 184.25,555 184.25,546.5 175.75,546.5 175.75,555 165,555 165,544.25 173.5,544.25 173.5,535.75 165,535.75 165,525"/>
<polygon id="0x2843990" class="l71d20" points="175.75,565 175.75,573.5 184.25,573.5 184.25,565 195,565 195,575.75 186.5,575.75 186.5,584.25 195,584.25 195,595 184.25,595 184.25,586.5 175.75,586.5 175.75,595 165,595 165,584.25 173.5,584.25 173.5,575.75 165,575.75 165,565"/>
<polygon id="0x2843b50" class="l71d20" points="175.75,605 175.75,613.5 184.25,613.5 184.25,605 195,605 195,615.75 186.5,615.75 186.5,624.25 195,624.25 195,635 184.25,635 184.25,626.5 175.75,626.5 175.75,635 165,635 165,624.25 173.5,624.25 173.5,615.75 165,615.75 165,605"/>
<polygon id="0x2843d10" class="l71d20" points="215.75,365 215.75,373.5 224.25,373.5 224.25,365 235,365 235,375.75 226.5,375.75 226.5,384.25 235,384.25 235,395 224.25,395 224.25,386.5 215.75,386.5 215.75,395 205,395 205,384.25 213.5,384.25 213.5,375.75 205,375.75 205,365"/>
<polygon id="0x2843ed0" class="l71d20" points="215.75,445 215.75,453.5 224.25,453.5 224.25,445 235,445 235,455.75 226.5,455.75 226.5,464.25 235,464.25 235,475 224.25,475 224.25,466.5 215.75,466.5 215.75,475 205,475 205,464.25 213.5,464.25 213.5,455.75 205,455.75 205,445"/>
<polygon id="0x2844090" class="l71d20" points="215.75,565 215.75,573.5 224.25,573.5 224.25,565 235,565 235,575.75 226.5,575.75 226.5,584.25 235,584.25 235,595 224.25,595 224.25,586.5 215.75,586.5 215.75,595 205,595 205,584.25 213.5,584.25 213.5,575.75 205,575.75 205,565"/>
<polygon id="0x2844250" class="l71d20" points="215.75,645 215.75,653.5 224.25,653.5 224.25,645 235,645 235,655.75 226.5,655.75 226.5,664.25 235,664.25 235,675 224.25,675 224.25,666.5 215.75,666.5 215.75,675 205,675 205,664.25 213.5,664.25 213.5,655.75 205,655.75 205,645"/>
<polygon id="0x2844410" class="l71d20" points="255.75,405 255.75,413.5 264.25,413.5 264.25,405 275,405 275,415.75 266.5,415.75 266.5,424.25 275,424.25 275,435 264.25,435 264.25,426.5 255.75,426.5 255.75,435 245,435 245,424.25 253.5,424.25 253.5,415.75 245,415.75 245,405"/>
<polygon id="0x280b5b0" class="l71d20" points="255.75,605 255.75,613.5 264.25,613.5 264.25,605 275,605 275,615.75 266.5,615.75 266.5,624.25 275,624.25 275,635 264.25,635 264.25,626.5 255.75,626.5 255.75,635 245,635 245,624.25 253.5,624.25 253.5,615.75 245,615.75 245,605"/>
<polygon id="0x281e260" class="l71d20" points="295.75,365 295.75,373.5 304.25,373.5 304.25,365 315,365 315,375.75 306.5,375.75 306.5,384.25 315,384.25 315,395 304.25,395 304.25,386.5 295.75,386.5 295.75,395 285,395 285,384.25 293.5,384.25 293.5,375.75 285,375.75 285,365"/>
<polygon id="0x2813fe0" class="l71d20" points="295.75,405 295.75,413.5 304.25,413.5 304.25,405 315,405 315,415.75 306.5,415.75 306.5,424.25 315,424.25 315,435 304.25,435 304.25,426.5 295.75,426.5 295.75,435 285,435 285,424.25 293.5,424.25 293.5,415.75 285,415.75 285,405"/>
<polygon id="0x2755650" class="l71d20" points="295.75,605 295.75,613.5 304.25,613.5 304.25,605 315,605 315,615.75 306.5,615.75 306.5,624.25 315,624.25 315,635 304.25,635 304.25,626.5 295.75,626.5 295.75,635 285,635 285,624.25 293.5,624.25 293.5,615.75 285,615.75 285,605"/>
<polygon id="0x274c530" class="l71d20" points="295.75,645 295.75,653.5 304.25,653.5 304.25,645 315,645 315,655.75 306.5,655.75 306.5,664.25 315,664.25 315,675 304.25,675 304.25,666.5 295.75,666.5 295.75,675 285,675 285,664.25 293.5,664.25 293.5,655.75 285,655.75 285,645"/>
<polygon id="0x2785e20" class="l71d20" points="415.75,5 415.75,13.5 424.25,13.5 424.25,5 435,5 435,15.75 426.5,15.75 426.5,24.25 435,24.25 435,35 424.25,35 424.25,26.5 415.75,26.5 415.75,35 405,35 405,24.25 413.5,24.25 413.5,15.75 405,15.75 405,5"/>
<polygon id="0x2799360" class="l71d20" points="415.75,125 415.75,133.5 424.25,133.5 424.25,125 435,125 435,135.75 426.5,135.75 426.5,144.25 435,144.25 435,155 424.25,155 424.25,146.5 415.75,146.5 415.75,155 405,155 405,144.25 413.5,144.25 413.5,135.75 405,135.75 405,125"/>
<polygon id="0x27dc180" class="l71d20" points="415.75,165 415.75,173.5 424.25,173.5 424.25,165 435,165 435,175.75 426.5,175.75 426.5,184.25 435,184.25 435,195 424.25,195 424.25,186.5 415.75,186.5 415.75,195 405,195 405,184.25 413.5,184.25 413.5,175.75 405,175.75 405,165"/>
<polygon id="0x2826080" class="l71d20" points="415.75,285 415.75,293.5 424.25,293.5 424.25,285 435,285 435,295.75 426.5,295.75 426.5,304.25 435,304.25 435,315 424.25,315 424.25,306.5 415.75,306.5 415.75,315 405,315 405,304.25 413.5,304.25 413.5,295.75 405,295.75 405,285"/>
<polygon id="0x257e2a0" class="l71d20" points="455.75,5 455.75,13.5 464.25,13.5 464.25,5 475,5 475,15.75 466.5,15.75 466.5,24.25 475,24.25 475,35 464.25,35 464.25,26.5 455.75,26.5 455.75,35 445,35 445,24.25 453.5,24.25 453.5,15.75 445,15.75 445,5"/>
<polygon id="0x283e4a0" class="l71d20" points="455.75,45 455.75,53.5 464.25,53.5 464.25,45 475,45 475,55.75 466.5,55.75 466.5,64.25 475,64.25 475,75 464.25,75 464.25,66.5 455.75,66.5 455.75,75 445,75 445,64.25 453.5,64.25 453.5,55.75 445,55.75 445,45"/>
<polygon id="0x283e060" class="l71d20" points="455.75,125 455.75,133.5 464.25,133.5 464.25,125 475,125 475,135.75 466.5,135.75 466.5,144.25 475,144.25 475,155 464.25,155 464.25,146.5 455.75,146.5 455.75,155 445,155 445,144.25 453.5,144.25 453.5,135.75 445,135.75 445,125"/>
<polygon id="0x261f960" class="l71d20" points="455.75,165 455.75,173.5 464.25,173.5 464.25,165 475,165 475,175.75 466.5,175.75 466.5,184.25 475,184.25 475,195 464.25,195 464.25,186.5 455.75,186.5 455.75,195 445,195 445,184.25 453.5,184.25 453.5,175.75 445,175.75 445,165"/>
<polygon id="0x269faf0" class="l71d20" points="455.75,245 455.75,253.5 464.25,253.5 464.25,245 475,245 475,255.75 466.5,255.75 466.5,264.25 475,264.25 475,275 464.25,275 464.25,266.5 455.75,266.5 455.75,275 445,275 445,264.25 453.5,264.25 453.5,255.75 445,255.75 445,245"/>
<polygon id="0x26aef10" class="l71d20" points="455.75,285 455.75,293.5 464.25,293.5 464.25,285 475,285 475,295.75 466.5,295.75 466.5,304.25 475,304.25 475,315 464.25,315 464.25,306.5 455.75,306.5 455.75,315 445,315 445,304.25 453.5,304.25 453.5,295.75 445,295.75 445,285"/>
<polygon id="0x26a72d0" class="l71d20" points="495.75,5 495.75,13.5 504.25,13.5 504.25,5 515,5 515,15.75 506.5,15.75 506.5,24.25 515,24.25 515,35 504.25,35 504.25,26.5 495.75,26.5 495.75,35 485,35 485,24.25 493.5,24.25 493.5,15.75 485,15.75 485,5"/>
<polygon id="0x27aa870" class="l71d20" points="495.75,45 495.75,53.5 504.25,53.5 504.25,45 515,45 515,55.75 506.5,55.75 506.5,64.25 515,64.25 515,75 504.25,75 504.25,66.5 495.75,66.5 495.75,75 485,75 485,64.25 493.5,64.25 493.5,55.75 485,55.75 485,45"/>
<polygon id="0x27ecc10" class="l71d20" points="495.75,85 495.75,93.5 504.25,93.5 504.25,85 515,85 515,95.75 506.5,95.75 506.5,104.25 515,104.25 515,115 504.25,115 504.25,106.5 495.75,106.5 495.75,115 485,115 485,104.25 493.5,104.25 493.5,95.75 485,95.75 485,85"/>
<polygon id="0x273cfb0" class="l71d20" points="495.75,205 495.75,213.5 504.25,213.5 504.25,205 515,205 515,215.75 506.5,215.75 506.5,224.25 515,224.25 515,235 504.25,235 504.25,226.5 495.75,226.5 495.75,235 485,235 485,224.25 493.5,224.25 493.5,215.75 485,215.75 485,205"/>
<polygon id="0x273d020" class="l71d20" points="495.75,245 495.75,253.5 504.25,253.5 504.25,245 515,245 515,255.75 506.5,255.75 506.5,264.25 515,264.25 515,275 504.25,275 504.25,266.5 495.75,266.5 495.75,275 485,275 485,264.25 493.5,264.25 493.5,255.75 485,255.75 485,245"/>
<polygon id="0x2766640" class="l71d20" points="495.75,285 495.75,293.5 504.25,293.5 504.25,285 515,285 515,295.75 506.5,295.75 506.5,304.25 515,304.25 515,315 504.25,315 504.25,306.5 495.75,306.5 495.75,315 485,315 485,304.25 493.5,304.25 493.5,295.75 485,295.75 485,285"/>
<polygon id="0x27666b0" class="l71d20" points="535.75,5 535.75,13.5 544.25,13.5 544.25,5 555,5 555,15.75 546.5,15.75 546.5,24.25 555,24.25 555,35 544.25,35 544.25,26.5 535.75,26.5 535.75,35 525,35 525,24.25 533.5,24.25 533.5,15.75 525,15.75 525,5"/>
<polygon id="0x2767860" class="l71d20" points="535.75,45 535.75,53.5 544.25,53.5 544.25,45 555,45 555,55.75 546.5,55.75 546.5,64.25 555,64.25 555,75 544.25,75 544.25,66.5 535.75,66.5 535.75,75 525,75 525,64.25 533.5,64.25 533.5,55.75 525,55.75 525,45"/>
<polygon id="0x27678d0" class="l71d20" points="535.75,85 535.75,93.5 544.25,93.5 544.25,85 555,85 555,95.75 546.5,95.75 546.5,104.25 555,104.25 555,115 544.25,115 544.25,106.5 535.75,106.5 535.75,115 525,115 525,104.25 533.5,104.25 533.5,95.75 525,95.75 525,85"/>
<polygon id="0x27ea870" class="l71d20" points="535.75,205 535.75,213.5 544.25,213.5 544.25,205 555,205 555,215.75 546.5,215.75 546.5,224.25 555,224.25 555,235 544.25,235 544.25,226.5 535.75,226.5 535.75,235 525,235 525,224.25 533.5,224.25 533.5,215.75 525,215.75 525,205"/>
<polygon id="0x27ea8e0" class="l71d20" points="535.75,245 535.75,253.5 544.25,253.5 544.25,245 555,245 555,255.75 546.5,255.75 546.5,264.25 555,264.25 555,275 544.25,275 544.25,266.5 535.75,266.5 535.75,275 525,275 525,264.25 533.5,264.25 533.5,255.75 525,255.75 525,245"/>
<polygon id="0x281f3b0" class="l71d20" points="535.75,285 535.75,293.5 544.25,293.5 544.25,285 555,285 555,295.75 546.5,295.75 546.5,304.25 555,304.25 555,315 544.25,315 544.25,306.5 535.75,306.5 535.75,315 525,315 525,304.25 533.5,304.25 533.5,295.75 525,295.75 525,285"/>
<polygon id="0x281f420" class="l71d20" points="575.75,5 575.75,13.5 584.25,13.5 584.25,5 595,5 595,15.75 586.5,15.75 586.5,24.25 595,24.25 595,35 584.25,35 584.25,26.5 575.75,26.5 575.75,35 565,35 565,24.25 573.5,24.25 573.5,15.75 565,15.75 565,5"/>
<polygon id="0x25f04b0" class="l71d20" points="575.75,45 575.75,53.5 584.25,53.5 584.25,45 595,45 595,55.75 586.5,55.75 586.5,64.25 595,64.25 595,75 584.25,75 584.25,66.5 575.75,66.5 575.75,75 565,75 565,64.25 573.5,64.25 573.5,55.75 565,55.75 565,45"/>
<polygon id="0x2659c80" class="l71d20" points="575.75,125 575.75,133.5 584.25,133.5 584.25,125 595,125 595,135.75 586.5,135.75 586.5,144.25 595,144.25 595,155 584.25,155 584.25,146.5 575.75,146.5 575.75,155 565,155 565,144.25 573.5,144.25 573.5,135.75 565,135.75 565,125"/>
<polygon id="0x26f8080" class="l71d20" points="575.75,165 575.75,173.5 584.25,173.5 584.25,165 595,165 595,175.75 586.5,175.75 586.5,184.25 595,184.25 595,195 584.25,195 584.25,186.5 575.75,186.5 575.75,195 565,195 565,184.25 573.5,184.25 573.5,175.75 565,175.75 565,165"/>
<polygon id="0x27203a0" class="l71d20" points="575.75,245 575.75,253.5 584.25,253.5 584.25,245 595,245 595,255.75 586.5,255.75 586.5,264.25 595,264.25 595,275 584.25,275 584.25,266.5 575.75,266.5 575.75,275 565,275 565,264.25 573.5,264.25 573.5,255.75 565,255.75 565,245"/>
<polygon id="0x2726e80" class="l71d20" points="575.75,285 575.75,293.5 584.25,293.5 584.25,285 595,285 595,295.75 586.5,295.75 586.5,304.25 595,304.25 595,315 584.25,315 584.25,306.5 575.75,306.5 575.75,315 565,315 565,304.25 573.5,304.25 573.5,295.75 565,295.75 565,285"/>
<polygon id="0x27df250" class="l71d20" points="615.75,5 615.75,13.5 624.25,13.5 624.25,5 635,5 635,15.75 626.5,15.75 626.5,24.25 635,24.25 635,35 624.25,35 624.25,26.5 615.75,26.5 615.75,35 605,35 605,24.25 613.5,24.25 613.5,15.75 605,15.75 605,5"/>
<polygon id="0x27a3f40" class="l71d20" points="615.75,125 615.75,133.5 624.25,133.5 624.25,125 635,125 635,135.75 626.5,135.75 626.5,144.25 635,144.25 635,155 624.25,155 624.25,146.5 615.75,146.5 615.75,155 605,155 605,144.25 613.5,144.25 613.5,135.75 605,135.75 605,125"/>
<polygon id="0x2616000" class="l71d20" points="615.75,165 615.75,173.5 624.25,173.5 624.25,165 635,165 635,175.75 626.5,175.75 626.5,184.25 635,184.25 635,195 624.25,195 624.25,186.5 615.75,186.5 615.75,195 605,195 605,184.25 613.5,184.25 613.5,175.75 605,175.75 605,165"/>
<polygon id="0x2616070" class="l71d20" points="615.75,285 615.75,293.5 624.25,293.5 624.25,285 635,285 635,295.75 626.5,295.75 626.5,304.25 635,304.25 635,315 624.25,315 624.25,306.5 615.75,306.5 615.75,315 605,315 605,304.25 613.5,304.25 613.5,295.75 605,295.75 605,285"/>
<polygon id="0x268c050" class="l71d20" points="415.75,485 415.75,493.5 424.25,493.5 424.25,485 435,485 435,495.75 426.5,495.75 426.5,504.25 435,504.25 435,515 424.25,515 424.25,506.5 415.75,506.5 415.75,515 405,515 405,504.25 413.5,504.25 413.5,495.75 405,495.75 405,485"/>
<polygon id="0x268c0c0" class="l71d20" points="415.75,525 415.75,533.5 424.25,533.5 424.25,525 435,525 435,535.75 426.5,535.75 426.5,544.25 435,544.25 435,555 424.25,555 424.25,546.5 415.75,546.5 415.75,555 405,555 405,544.25 413.5,544.25 413.5,535.75 405,535.75 405,525"/>
<polygon id="0x2769310" class="l71d20" points="455.75,365 455.75,373.5 464.25,373.5 464.25,365 475,365 475,375.75 466.5,375.75 466.5,384.25 475,384.25 475,395 464.25,395 464.25,386.5 455.75,386.5 455.75,395 445,395 445,384.25 453.5,384.25 453.5,375.75 445,375.75 445,365"/>
<polygon id="0x2769380" class="l71d20" points="455.75,405 455.75,413.5 464.25,413.5 464.25,405 475,405 475,415.75 466.5,415.75 466.5,424.25 475,424.25 475,435 464.25,435 464.25,426.5 455.75,426.5 455.75,435 445,435 445,424.25 453.5,424.25 453.5,415.75 445,415.75 445,405"/>
<polygon id="0x27ba7e0" class="l71d20" points="455.75,485 455.75,493.5 464.25,493.5 464.25,485 475,485 475,495.75 466.5,495.75 466.5,504.25 475,504.25 475,515 464.25,515 464.25,506.5 455.75,506.5 455.75,515 445,515 445,504.25 453.5,504.25 453.5,495.75 445,495.75 445,485"/>
<polygon id="0x27ba850" class="l71d20" points="455.75,525 455.75,533.5 464.25,533.5 464.25,525 475,525 475,535.75 466.5,535.75 466.5,544.25 475,544.25 475,555 464.25,555 464.25,546.5 455.75,546.5 455.75,555 445,555 445,544.25 453.5,544.25 453.5,535.75 445,535.75 445,525"/>
<polygon id="0x2784c10" class="l71d20" points="455.75,605 455.75,613.5 464.25,613.5 464.25,605 475,605 475,615.75 466.5,615.75 466.5,624.25 475,624.25 475,635 464.25,635 464.25,626.5 455.75,626.5 455.75,635 445,635 445,624.25 453.5,624.25 453.5,615.75 445,615.75 445,605"/>
<polygon id="0x2784c80" class="l71d20" points="455.75,645 455.75,653.5 464.25,653.5 464.25,645 475,645 475,655.75 466.5,655.75 466.5,664.25 475,664.25 475,675 464.25,675 464.25,666.5 455.75,666.5 455.75,675 445,675 445,664.25 453.5,664.25 453.5,655.75 445,655.75 445,645"/>
<polygon id="0x25488c0" class="l71d20" points="495.75,365 495.75,373.5 504.25,373.5 504.25,365 515,365 515,375.75 506.5,375.75 506.5,384.25 515,384.25 515,395 504.25,395 504.25,386.5 495.75,386.5 495.75,395 485,395 485,384.25 493.5,384.25 493.5,375.75 485,375.75 485,365"/>
<polygon id="0x2548930" class="l71d20" points="495.75,405 495.75,413.5 504.25,413.5 504.25,405 515,405 515,415.75 506.5,415.75 506.5,424.25 515,424.25 515,435 504.25,435 504.25,426.5 495.75,426.5 495.75,435 485,435 485,424.25 493.5,424.25 493.5,415.75 485,415.75 485,405"/>
<polygon id="0x269dba0" class="l71d20" points="495.75,445 495.75,453.5 504.25,453.5 504.25,445 515,445 515,455.75 506.5,455.75 506.5,464.25 515,464.25 515,475 504.25,475 504.25,466.5 495.75,466.5 495.75,475 485,475 485,464.25 493.5,464.25 493.5,455.75 485,455.75 485,445"/>
<polygon id="0x274a640" class="l71d20" points="495.75,485 495.75,493.5 504.25,493.5 504.25,485 515,485 515,495.75 506.5,495.75 506.5,504.25 515,504.25 515,515 504.25,515 504.25,506.5 495.75,506.5 495.75,515 485,515 485,504.25 493.5,504.25 493.5,495.75 485,495.75 485,485"/>
<polygon id="0x2770c40" class="l71d20" points="495.75,525 495.75,533.5 504.25,533.5 504.25,525 515,525 515,535.75 506.5,535.75 506.5,544.25 515,544.25 515,555 504.25,555 504.25,546.5 495.75,546.5 495.75,555 485,555 485,544.25 493.5,544.25 493.5,535.75 485,535.75 485,525"/>
<polygon id="0x268b250" class="l71d20" points="495.75,565 495.75,573.5 504.25,573.5 504.25,565 515,565 515,575.75 506.5,575.75 506.5,584.25 515,584.25 515,595 504.25,595 504.25,586.5 495.75,586.5 495.75,595 485,595 485,584.25 493.5,584.25 493.5,575.75 485,575.75 485,565"/>
<polygon id="0x268b2c0" class="l71d20" points="495.75,605 495.75,613.5 504.25,613.5 504.25,605 515,605 515,615.75 506.5,615.75 506.5,624.25 515,624.25 515,635 504.25,635 504.25,626.5 495.75,626.5 495.75,635 485,635 485,624.25 493.5,624.25 493.5,615.75 485,615.75 485,605"/>
<polygon id="0x2717880" class="l71d20" points="495.75,645 495.75,653.5 504.25,653.5 504.25,645 515,645 515,655.75 506.5,655.75 506.5,664.25 515,664.25 515,675 504.25,675 504.25,666.5 495.75,666.5 495.75,675 485,675 485,664.25 493.5,664.25 493.5,655.75 485,655.75 485,645"/>
<polygon id="0x27178f0" class="l71d20" points="535.75,365 535.75,373.5 544.25,373.5 544.25,365 555,365 555,375.75 546.5,375.75 546.5,384.25 555,384.25 555,395 544.25,395 544.25,386.5 535.75,386.5 535.75,395 525,395 525,384.25 533.5,384.25 533.5,375.75 525,375.75 525,365"/>
<polygon id="0x2631a50" class="l71d20" points="535.75,405 535.75,413.5 544.25,413.5 544.25,405 555,405 555,415.75 546.5,415.75 546.5,424.25 555,424.25 555,435 544.25,435 544.25,426.5 535.75,426.5 535.75,435 525,435 525,424.25 533.5,424.25 533.5,415.75 525,415.75 525,405"/>
<polygon id="0x26be020" class="l71d20" points="535.75,445 535.75,453.5 544.25,453.5 544.25,445 555,445 555,455.75 546.5,455.75 546.5,464.25 555,464.25 555,475 544.25,475 544.25,466.5 535.75,466.5 535.75,475 525,475 525,464.25 533.5,464.25 533.5,455.75 525,455.75 525,445"/>
<polygon id="0x2723d10" class="l71d20" points="535.75,485 535.75,493.5 544.25,493.5 544.25,485 555,485 555,495.75 546.5,495.75 546.5,504.25 555,504.25 555,515 544.25,515 544.25,506.5 535.75,506.5 535.75,515 525,515 525,504.25 533.5,504.25 533.5,495.75 525,495.75 525,485"/>
<polygon id="0x278bbc0" class="l71d20" points="535.75,525 535.75,533.5 544.25,533.5 544.25,525 555,525 555,535.75 546.5,535.75 546.5,544.25 555,544.25 555,555 544.25,555 544.25,546.5 535.75,546.5 535.75,555 525,555 525,544.25 533.5,544.25 533.5,535.75 525,535.75 525,525"/>
<polygon id="0x27932b0" class="l71d20" points="535.75,565 535.75,573.5 544.25,573.5 544.25,565 555,565 555,575.75 546.5,575.75 546.5,584.25 555,584.25 555,595 544.25,595 544.25,586.5 535.75,586.5 535.75,595 525,595 525,584.25 533.5,584.25 533.5,575.75 525,575.75 525,565"/>
<polygon id="0x2817840" class="l71d20" points="535.75,605 535.75,613.5 544.25,613.5 544.25,605 555,605 555,615.75 546.5,615.75 546.5,624.25 555,624.25 555,635 544.25,635 544.25,626.5 535.75,626.5 535.75,635 525,635 525,624.25 533.5,624.25 533.5,615.75 525,615.75 525,605"/>
<polygon id="0x257ed20" class="l71d20" points="535.75,645 535.75,653.5 544.25,653.5 544.25,645 555,645 555,655.75 546.5,655.75 546.5,664.25 555,664.25 555,675 544.25,675 544.25,666.5 535.75,666.5 535.75,675 525,675 525,664.25 533.5,664.25 533.5,655.75 525,655.75 525,645"/>
<polygon id="0x25dc0b0" class="l71d20" points="575.75,365 575.75,373.5 584.25,373.5 584.25,365 595,365 595,375.75 586.5,375.75 586.5,384.25 595,384.25 595,395 584.25,395 584.25,386.5 575.75,386.5 575.75,395 565,395 565,384.25 573.5,384.25 573.5,375.75 565,375.75 565,365"/>
<polygon id="0x2665030" class="l71d20" points="575.75,405 575.75,413.5 584.25,413.5 584.25,405 595,405 595,415.75 586.5,415.75 586.5,424.25 595,424.25 595,435 584.25,435 584.25,426.5 575.75,426.5 575.75,435 565,435 565,424.25 573.5,424.25 573.5,415.75 565,415.75 565,405"/>
<polygon id="0x2672b90" class="l71d20" points="575.75,485 575.75,493.5 584.25,493.5 584.25,485 595,485 595,495.75 586.5,495.75 586.5,504.25 595,504.25 595,515 584.25,515 584.25,506.5 575.75,506.5 575.75,515 565,515 565,504.25 573.5,504.25 573.5,495.75 565,495.75 565,485"/>
<polygon id="0x26815a0" class="l71d20" points="575.75,525 575.75,533.5 584.25,533.5 584.25,525 595,525 595,535.75 586.5,535.75 586.5,544.25 595,544.25 595,555 584.25,555 584.25,546.5 575.75,546.5 575.75,555 565,555 565,544.25 573.5,544.25 573.5,535.75 565,535.75 565,525"/>
<polygon id="0x27381e0" class="l71d20" points="575.75,605 575.75,613.5 584.25,613.5 584.25,605 595,605 595,615.75 586.5,615.75 586.5,624.25 595,624.25 595,635 584.25,635 584.25,626.5 575.75,626.5 575.75,635 565,635 565,624.25 573.5,624.25 573.5,615.75 565,615.75 565,605"/>
<polygon id="0x268ea30" class="l71d20" points="575.75,645 575.75,653.5 584.25,653.5 584.25,645 595,645 595,655.75 586.5,655.75 586.5,664.25 595,664.25 595,675 584.25,675 584.25,666.5 575.75,666.5 575.75,675 565,675 565,664.25 573.5,664.25 573.5,655.75 565,655.75 565,645"/>
<polygon id="0x276bd70" class="l71d20" points="615.75,485 615.75,493.5 624.25,493.5 624.25,485 635,485 635,495.75 626.5,495.75 626.5,504.25 635,504.25 635,515 624.25,515 624.25,506.5 615.75,506.5 615.75,515 605,515 605,504.25 613.5,504.25 613.5,495.75 605,495.75 605,485"/>
<polygon id="0x276bde0" class="l71d20" points="615.75,525 615.75,533.5 624.25,533.5 624.25,525 635,525 635,535.75 626.5,535.75 626.5,544.25 635,544.25 635,555 624.25,555 624.25,546.5 615.75,546.5 615.75,555 605,555 605,544.25 613.5,544.25 613.5,535.75 605,535.75 605,525"/>
<polygon id="0x2783fa0" class="l71d20" points="735.75,5 735.75,13.5 744.25,13.5 744.25,5 755,5 755,15.75 746.5,15.75 746.5,24.25 755,24.25 755,35 744.25,35 744.25,26.5 735.75,26.5 735.75,35 725,35 725,24.25 733.5,24.25 733.5,15.75 725,15.75 725,5"/>
<polygon id="0x2784010" class="l71d20" points="735.75,45 735.75,53.5 744.25,53.5 744.25,45 755,45 755,55.75 746.5,55.75 746.5,64.25 755,64.25 755,75 744.25,75 744.25,66.5 735.75,66.5 735.75,75 725,75 725,64.25 733.5,64.25 733.5,55.75 725,55.75 725,45"/>
<polygon id="0x27a9590" class="l71d20" points="735.75,245 735.75,253.5 744.25,253.5 744.25,245 755,245 755,255.75 746.5,255.75 746.5,264.25 755,264.25 755,275 744.25,275 744.25,266.5 735.75,266.5 735.75,275 725,275 725,264.25 733.5,264.25 733.5,255.75 725,255.75 725,245"/>
<polygon id="0x27a9600" class="l71d20" points="735.75,285 735.75,293.5 744.25,293.5 744.25,285 755,285 755,295.75 746.5,295.75 746.5,304.25 755,304.25 755,315 744.25,315 744.25,306.5 735.75,306.5 735.75,315 725,315 725,304.25 733.5,304.25 733.5,295.75 725,295.75 725,285"/>
<polygon id="0x27db7a0" class="l71d20" points="815.75,85 815.75,93.5 824.25,93.5 824.25,85 835,85 835,95.75 826.5,95.75 826.5,104.25 835,104.25 835,115 824.25,115 824.25,106.5 815.75,106.5 815.75,115 805,115 805,104.25 813.5,104.25 813.5,95.75 805,95.75 805,85"/>
<polygon id="0x27db810" class="l71d20" points="815.75,125 815.75,133.5 824.25,133.5 824.25,125 835,125 835,135.75 826.5,135.75 826.5,144.25 835,144.25 835,155 824.25,155 824.25,146.5 815.75,146.5 815.75,155 805,155 805,144.25 813.5,144.25 813.5,135.75 805,135.75 805,125"/>
<polygon id="0x281eac0" class="l71d20" points="815.75,165 815.75,173.5 824.25,173.5 824.25,165 835,165 835,175.75 826.5,175.75 826.5,184.25 835,184.25 835,195 824.25,195 824.25,186.5 815.75,186.5 815.75,195 805,195 805,184.25 813.5,184.25 813.5,175.75 805,175.75 805,165"/>
<polygon id="0x281eb30" class="l71d20" points="815.75,205 815.75,213.5 824.25,213.5 824.25,205 835,205 835,215.75 826.5,215.75 826.5,224.25 835,224.25 835,235 824.25,235 824.25,226.5 815.75,226.5 815.75,235 805,235 805,224.25 813.5,224.25 813.5,215.75 805,215.75 805,205"/>
<polygon id="0x2845ad0" class="l71d20" points="855.75,5 855.75,13.5 864.25,13.5 864.25,5 875,5 875,15.75 866.5,15.75 866.5,24.25 875,24.25 875,35 864.25,35 864.25,26.5 855.75,26.5 855.75,35 845,35 845,24.25 853.5,24.25 853.5,15.75 845,15.75 845,5"/>
<polygon id="0x2845b40" class="l71d20" points="855.75,85 855.75,93.5 864.25,93.5 864.25,85 875,85 875,95.75 866.5,95.75 866.5,104.25 875,104.25 875,115 864.25,115 864.25,106.5 855.75,106.5 855.75,115 845,115 845,104.25 853.5,104.25 853.5,95.75 845,95.75 845,85"/>
<polygon id="0x25eba80" class="l71d20" points="855.75,125 855.75,133.5 864.25,133.5 864.25,125 875,125 875,135.75 866.5,135.75 866.5,144.25 875,144.25 875,155 864.25,155 864.25,146.5 855.75,146.5 855.75,155 845,155 845,144.25 853.5,144.25 853.5,135.75 845,135.75 845,125"/>
<polygon id="0x25ebaf0" class="l71d20" points="855.75,165 855.75,173.5 864.25,173.5 864.25,165 875,165 875,175.75 866.5,175.75 866.5,184.25 875,184.25 875,195 864.25,195 864.25,186.5 855.75,186.5 855.75,195 845,195 845,184.25 853.5,184.25 853.5,175.75 845,175.75 845,165"/>
<polygon id="0x24f4700" class="l71d20" points="855.75,205 855.75,213.5 864.25,213.5 864.25,205 875,205 875,215.75 866.5,215.75 866.5,224.25 875,224.25 875,235 864.25,235 864.25,226.5 855.75,226.5 855.75,235 845,235 845,224.25 853.5,224.25 853.5,215.75 845,215.75 845,205"/>
<polygon id="0x24f4770" class="l71d20" points="855.75,285 855.75,293.5 864.25,293.5 864.25,285 875,285 875,295.75 866.5,295.75 866.5,304.25 875,304.25 875,315 864.25,315 864.25,306.5 855.75,306.5 855.75,315 845,315 845,304.25 853.5,304.25 853.5,295.75 845,295.75 845,285"/>
<polygon id="0x26068e0" class="l71d20" points="895.75,5 895.75,13.5 904.25,13.5 904.25,5 915,5 915,15.75 906.5,15.75 906.5,24.25 915,24.25 915,35 904.25,35 904.25,26.5 895.75,26.5 895.75,35 885,35 885,24.25 893.5,24.25 893.5,15.75 885,15.75 885,5"/>
<polygon id="0x2606950" class="l71d20" points="895.75,85 895.75,93.5 904.25,93.5 904.25,85 915,85 915,95.75 906.5,95.75 906.5,104.25 915,104.25 915,115 904.25,115 904.25,106.5 895.75,106.5 895.75,115 885,115 885,104.25 893.5,104.25 893.5,95.75 885,95.75 885,85"/>
<polygon id="0x2621680" class="l71d20" points="895.75,125 895.75,133.5 904.25,133.5 904.25,125 915,125 915,135.75 906.5,135.75 906.5,144.25 915,144.25 915,155 904.25,155 904.25,146.5 895.75,146.5 895.75,155 885,155 885,144.25 893.5,144.25 893.5,135.75 885,135.75 885,125"/>
<polygon id="0x26216f0" class="l71d20" points="895.75,165 895.75,173.5 904.25,173.5 904.25,165 915,165 915,175.75 906.5,175.75 906.5,184.25 915,184.25 915,195 904.25,195 904.25,186.5 895.75,186.5 895.75,195 885,195 885,184.25 893.5,184.25 893.5,175.75 885,175.75 885,165"/>
<polygon id="0x264a2a0" class="l71d20" points="895.75,205 895.75,213.5 904.25,213.5 904.25,205 915,205 915,215.75 906.5,215.75 906.5,224.25 915,224.25 915,235 904.25,235 904.25,226.5 895.75,226.5 895.75,235 885,235 885,224.25 893.5,224.25 893.5,215.75 885,215.75 885,205"/>
<polygon id="0x264a310" class="l71d20" points="895.75,285 895.75,293.5 904.25,293.5 904.25,285 915,285 915,295.75 906.5,295.75 906.5,304.25 915,304.25 915,315 904.25,315 904.25,306.5 895.75,306.5 895.75,315 885,315 885,304.25 893.5,304.25 893.5,295.75 885,295.75 885,285"/>
<polygon id="0x26a2310" class="l71d20" points="935.75,85 935.75,93.5 944.25,93.5 944.25,85 955,85 955,95.75 946.5,95.75 946.5,104.25 955,104.25 955,115 944.25,115 944.25,106.5 935.75,106.5 935.75,115 925,115 925,104.25 933.5,104.25 933.5,95.75 925,95.75 925,85"/>
<polygon id="0x26a2380" class="l71d20" points="935.75,125 935.75,133.5 944.25,133.5 944.25,125 955,125 955,135.75 946.5,135.75 946.5,144.25 955,144.25 955,155 944.25,155 944.25,146.5 935.75,146.5 935.75,155 925,155 925,144.25 933.5,144.25 933.5,135.75 925,135.75 925,125"/>
<polygon id="0x2689010" class="l71d20" points="935.75,165 935.75,173.5 944.25,173.5 944.25,165 955,165 955,175.75 946.5,175.75 946.5,184.25 955,184.25 955,195 944.25,195 944.25,186.5 935.75,186.5 935.75,195 925,195 925,184.25 933.5,184.25 933.5,175.75 925,175.75 925,165"/>
<polygon id="0x2689080" class="l71d20" points="935.75,205 935.75,213.5 944.25,213.5 944.25,205 955,205 955,215.75 946.5,215.75 946.5,224.25 955,224.25 955,235 944.25,235 944.25,226.5 935.75,226.5 935.75,235 925,235 925,224.25 933.5,224.25 933.5,215.75 925,215.75 925,205"/>
<polygon id="0x2758a70" class="l71d20" points="1015.75,5 1015.75,13.5 1024.25,13.5 1024.25,5 1035,5 1035,15.75 1026.5,15.75 1026.5,24.25 1035,24.25 1035,35 1024.25,35 1024.25,26.5 1015.75,26.5 1015.75,35 1005,35 1005,24.25 1013.5,24.25 1013.5,15.75 1005,15.75 1005,5"/>
<polygon id="0x2758ae0" class="l71d20" points="1015.75,45 1015.75,53.5 1024.25,53.5 1024.25,45 1035,45 1035,55.75 1026.5,55.75 1026.5,64.25 1035,64.25 1035,75 1024.25,75 1024.25,66.5 1015.75,66.5 1015.75,75 1005,75 1005,64.25 1013.5,64.25 1013.5,55.75 1005,55.75 1005,45"/>
<polygon id="0x278b380" class="l71d20" points="1015.75,245 1015.75,253.5 1024.25,253.5 1024.25,245 1035,245 1035,255.75 1026.5,255.75 1026.5,264.25 1035,264.25 1035,275 1024.25,275 1024.25,266.5 1015.75,266.5 1015.75,275 1005,275 1005,264.25 1013.5,264.25 1013.5,255.75 1005,255.75 1005,245"/>
<polygon id="0x278b3f0" class="l71d20" points="1015.75,285 1015.75,293.5 1024.25,293.5 1024.25,285 1035,285 1035,295.75 1026.5,295.75 1026.5,304.25 1035,304.25 1035,315 1024.25,315 1024.25,306.5 1015.75,306.5 1015.75,315 1005,315 1005,304.25 1013.5,304.25 1013.5,295.75 1005,295.75 1005,285"/>
<polygon id="0x27a6d50" class="l71d20" points="735.75,365 735.75,373.5 744.25,373.5 744.25,365 755,365 755,375.75 746.5,375.75 746.5,384.25 755,384.25 755,395 744.25,395 744.25,386.5 735.75,386.5 735.75,395 725,395 725,384.25 733.5,384.25 733.5,375.75 725,375.75 725,365"/>
<polygon id="0x27a6dc0" class="l71d20" points="735.75,405 735.75,413.5 744.25,413.5 744.25,405 755,405 755,415.75 746.5,415.75 746.5,424.25 755,424.25 755,435 744.25,435 744.25,426.5 735.75,426.5 735.75,435 725,435 725,424.25 733.5,424.25 733.5,415.75 725,415.75 725,405"/>
<polygon id="0x27f8610" class="l71d20" points="735.75,485 735.75,493.5 744.25,493.5 744.25,485 755,485 755,495.75 746.5,495.75 746.5,504.25 755,504.25 755,515 744.25,515 744.25,506.5 735.75,506.5 735.75,515 725,515 725,504.25 733.5,504.25 733.5,495.75 725,495.75 725,485"/>
<polygon id="0x27f8680" class="l71d20" points="735.75,525 735.75,533.5 744.25,533.5 744.25,525 755,525 755,535.75 746.5,535.75 746.5,544.25 755,544.25 755,555 744.25,555 744.25,546.5 735.75,546.5 735.75,555 725,555 725,544.25 733.5,544.25 733.5,535.75 725,535.75 725,525"/>
<polygon id="0x280e0e0" class="l71d20" points="735.75,605 735.75,613.5 744.25,613.5 744.25,605 755,605 755,615.75 746.5,615.75 746.5,624.25 755,624.25 755,635 744.25,635 744.25,626.5 735.75,626.5 735.75,635 725,635 725,624.25 733.5,624.25 733.5,615.75 725,615.75 725,605"/>
<polygon id="0x280e150" class="l71d20" points="735.75,645 735.75,653.5 744.25,653.5 744.25,645 755,645 755,655.75 746.5,655.75 746.5,664.25 755,664.25 755,675 744.25,675 744.25,666.5 735.75,666.5 735.75,675 725,675 725,664.25 733.5,664.25 733.5,655.75 725,655.75 725,645"/>
<polygon id="0x283e350" class="l71d20" points="775.75,405 775.75,413.5 784.25,413.5 784.25,405 795,405 795,415.75 786.5,415.75 786.5,424.25 795,424.25 795,435 784.25,435 784.25,426.5 775.75,426.5 775.75,435 765,435 765,424.25 773.5,424.25 773.5,415.75 765,415.75 765,405"/>
<polygon id="0x283e3c0" class="l71d20" points="775.75,485 775.75,493.5 784.25,493.5 784.25,485 795,485 795,495.75 786.5,495.75 786.5,504.25 795,504.25 795,515 784.25,515 784.25,506.5 775.75,506.5 775.75,515 765,515 765,504.25 773.5,504.25 773.5,495.75 765,495.75 765,485"/>
<polygon id="0x25f3420" class="l71d20" points="775.75,525 775.75,533.5 784.25,533.5 784.25,525 795,525 795,535.75 786.5,535.75 786.5,544.25 795,544.25 795,555 784.25,555 784.25,546.5 775.75,546.5 775.75,555 765,555 765,544.25 773.5,544.25 773.5,535.75 765,535.75 765,525"/>
<polygon id="0x25f3490" class="l71d20" points="775.75,605 775.75,613.5 784.25,613.5 784.25,605 795,605 795,615.75 786.5,615.75 786.5,624.25 795,624.25 795,635 784.25,635 784.25,626.5 775.75,626.5 775.75,635 765,635 765,624.25 773.5,624.25 773.5,615.75 765,615.75 765,605"/>
<polygon id="0x260b710" class="l71d20" points="815.75,445 815.75,453.5 824.25,453.5 824.25,445 835,445 835,455.75 826.5,455.75 826.5,464.25 835,464.25 835,475 824.25,475 824.25,466.5 815.75,466.5 815.75,475 805,475 805,464.25 813.5,464.25 813.5,455.75 805,455.75 805,445"/>
<polygon id="0x260b780" class="l71d20" points="815.75,485 815.75,493.5 824.25,493.5 824.25,485 835,485 835,495.75 826.5,495.75 826.5,504.25 835,504.25 835,515 824.25,515 824.25,506.5 815.75,506.5 815.75,515 805,515 805,504.25 813.5,504.25 813.5,495.75 805,495.75 805,485"/>
<polygon id="0x26a7aa0" class="l71d20" points="815.75,525 815.75,533.5 824.25,533.5 824.25,525 835,525 835,535.75 826.5,535.75 826.5,544.25 835,544.25 835,555 824.25,555 824.25,546.5 815.75,546.5 815.75,555 805,555 805,544.25 813.5,544.25 813.5,535.75 805,535.75 805,525"/>
<polygon id="0x26a7b10" class="l71d20" points="815.75,565 815.75,573.5 824.25,573.5 824.25,565 835,565 835,575.75 826.5,575.75 826.5,584.25 835,584.25 835,595 824.25,595 824.25,586.5 815.75,586.5 815.75,595 805,595 805,584.25 813.5,584.25 813.5,575.75 805,575.75 805,565"/>
<polygon id="0x269e5f0" class="l71d20" points="855.75,405 855.75,413.5 864.25,413.5 864.25,405 875,405 875,415.75 866.5,415.75 866.5,424.25 875,424.25 875,435 864.25,435 864.25,426.5 855.75,426.5 855.75,435 845,435 845,424.25 853.5,424.25 853.5,415.75 845,415.75 845,405"/>
<polygon id="0x269e660" class="l71d20" points="855.75,605 855.75,613.5 864.25,613.5 864.25,605 875,605 875,615.75 866.5,615.75 866.5,624.25 875,624.25 875,635 864.25,635 864.25,626.5 855.75,626.5 855.75,635 845,635 845,624.25 853.5,624.25 853.5,615.75 845,615.75 845,605"/>
<polygon id="0x26a0580" class="l71d20" points="895.75,405 895.75,413.5 904.25,413.5 904.25,405 915,405 915,415.75 906.5,415.75 906.5,424.25 915,424.25 915,435 904.25,435 904.25,426.5 895.75,426.5 895.75,435 885,435 885,424.25 893.5,424.25 893.5,415.75 885,415.75 885,405"/>
<polygon id="0x26a05f0" class="l71d20" points="895.75,605 895.75,613.5 904.25,613.5 904.25,605 915,605 915,615.75 906.5,615.75 906.5,624.25 915,624.25 915,635 904.25,635 904.25,626.5 895.75,626.5 895.75,635 885,635 885,624.25 893.5,624.25 893.5,615.75 885,615.75 885,605"/>
<polygon id="0x2786200" class="l71d20" points="935.75,445 935.75,453.5 944.25,453.5 944.25,445 955,445 955,455.75 946.5,455.75 946.5,464.25 955,464.25 955,475 944.25,475 944.25,466.5 935.75,466.5 935.75,475 925,475 925,464.25 933.5,464.25 933.5,455.75 925,455.75 925,445"/>
<polygon id="0x2786270" class="l71d20" points="935.75,485 935.75,493.5 944.25,493.5 944.25,485 955,485 955,495.75 946.5,495.75 946.5,504.25 955,504.25 955,515 944.25,515 944.25,506.5 935.75,506.5 935.75,515 925,515 925,504.25 933.5,504.25 933.5,495.75 925,495.75 925,485"/>
<polygon id="0x2663a40" class="l71d20" points="935.75,525 935.75,533.5 944.25,533.5 944.25,525 955,525 955,535.75 946.5,535.75 946.5,544.25 955,544.25 955,555 944.25,555 944.25,546.5 935.75,546.5 935.75,555 925,555 925,544.25 933.5,544.25 933.5,535.75 925,535.75 925,525"/>
<polygon id="0x2663ab0" class="l71d20" points="935.75,565 935.75,573.5 944.25,573.5 944.25,565 955,565 955,575.75 946.5,575.75 946.5,584.25 955,584.25 955,595 944.25,595 944.25,586.5 935.75,586.5 935.75,595 925,595 925,584.25 933.5,584.25 933.5,575.75 925,575.75 925,565"/>
<polygon id="0x26ae410" class="l71d20" points="975.75,405 975.75,413.5 984.25,413.5 984.25,405 995,405 995,415.75 986.5,415.75 986.5,424.25 995,424.25 995,435 984.25,435 984.25,426.5 975.75,426.5 975.75,435 965,435 965,424.25 973.5,424.25 973.5,415.75 965,415.75 965,405"/>
<polygon id="0x26ae480" class="l71d20" points="975.75,485 975.75,493.5 984.25,493.5 984.25,485 995,485 995,495.75 986.5,495.75 986.5,504.25 995,504.25 995,515 984.25,515 984.25,506.5 975.75,506.5 975.75,515 965,515 965,504.25 973.5,504.25 973.5,495.75 965,495.75 965,485"/>
<polygon id="0x2767ea0" class="l71d20" points="975.75,525 975.75,533.5 984.25,533.5 984.25,525 995,525 995,535.75 986.5,535.75 986.5,544.25 995,544.25 995,555 984.25,555 984.25,546.5 975.75,546.5 975.75,555 965,555 965,544.25 973.5,544.25 973.5,535.75 965,535.75 965,525"/>
<polygon id="0x2767f10" class="l71d20" points="975.75,605 975.75,613.5 984.25,613.5 984.25,605 995,605 995,615.75 986.5,615.75 986.5,624.25 995,624.25 995,635 984.25,635 984.25,626.5 975.75,626.5 975.75,635 965,635 965,624.25 973.5,624.25 973.5,615.75 965,615.75 965,605"/>
<polygon id="0x284c620" class="l71d20" points="1015.75,365 1015.75,373.5 1024.25,373.5 1024.25,365 1035,365 1035,375.75 1026.5,375.75 1026.5,384.25 1035,384.25 1035,395 1024.25,395 1024.25,386.5 1015.75,386.5 1015.75,395 1005,395 1005,384.25 1013.5,384.25 1013.5,375.75 1005,375.75 1005,365"/>
<polygon id="0x284c7e0" class="l71d20" points="1015.75,405 1015.75,413.5 1024.25,413.5 1024.25,405 1035,405 1035,415.75 1026.5,415.75 1026.5,424.25 1035,424.25 1035,435 1024.25,435 1024.25,426.5 1015.75,426.5 1015.75,435 1005,435 1005,424.25 1013.5,424.25 1013.5,415.75 1005,415.75 1005,405"/>
<polygon id="0x284c9a0" class="l71d20" points="1015.75,485 1015.75,493.5 1024.25,493.5 1024.25,485 1035,485 1035,495.75 1026.5,495.75 1026.5,504.25 1035,504.25 1035,515 1024.25,515 1024.25,506.5 1015.75,506.5 1015.75,515 1005,515 1005,504.25 1013.5,504.25 1013.5,495.75 1005,495.75 1005,485"/>
<polygon id="0x284cb60" class="l71d20" points="1015.75,525 1015.75,533.5 1024.25,533.5 1024.25,525 1035,525 1035,535.75 1026.5,535.75 1026.5,544.25 1035,544.25 1035,555 1024.25,555 1024.25,546.5 1015.75,546.5 1015.75,555 1005,555 1005,544.25 1013.5,544.25 1013.5,535.75 1005,535.75 1005,525"/>
<polygon id="0x284cd20" class="l71d20" points="1015.75,605 1015.75,613.5 1024.25,613.5 1024.25,605 1035,605 1035,615.75 1026.5,615.75 1026.5,624.25 1035,624.25 1035,635 1024.25,635 1024.25,626.5 1015.75,626.5 1015.75,635 1005,635 1005,624.25 1013.5,624.25 1013.5,615.75 1005,615.75 1005,605"/>
<polygon id="0x284cee0" class="l71d20" points="1015.75,645 1015.75,653.5 1024.25,653.5 1024.25,645 1035,645 1035,655.75 1026.5,655.75 1026.5,664.25 1035,664.25 1035,675 1024.25,675 1024.25,666.5 1015.75,666.5 1015.75,675 1005,675 1005,664.25 1013.5,664.25 1013.5,655.75 1005,655.75 1005,645"/>
<polygon id="0x26aac40" class="l235d4" points="0,0 40,0 40,40 0,40"/>
</g>
</svg>